<mxfile host="Electron" modified="2023-07-24T10:50:42.825Z" agent="Mozilla/5.0 (X11; Linux x86_64) AppleWebKit/537.36 (KHTML, like Gecko) draw.io/21.6.5 Chrome/114.0.5735.243 Electron/25.3.1 Safari/537.36" etag="6uhkkJW8bLiBAX-nYoxP" version="21.6.5" type="device">
  <diagram name="第 1 页" id="684M3y2fLr6qe14_jGMS">
    <mxGraphModel dx="2525" dy="1504" grid="1" gridSize="5" guides="1" tooltips="1" connect="1" arrows="1" fold="1" page="0" pageScale="1" pageWidth="1169" pageHeight="827" math="0" shadow="0">
      <root>
        <mxCell id="0" />
        <mxCell id="1" parent="0" />
        <mxCell id="7e6ycA0EHB4q4oPhDRhc-101" value="" style="group;spacing=10;" parent="1" vertex="1" connectable="0">
          <mxGeometry x="500" y="500" width="60" height="100" as="geometry" />
        </mxCell>
        <mxCell id="7e6ycA0EHB4q4oPhDRhc-102" value="SEXT" style="text;html=1;strokeColor=none;fillColor=none;align=center;verticalAlign=middle;whiteSpace=wrap;rounded=0;fontSize=20;" parent="7e6ycA0EHB4q4oPhDRhc-101" vertex="1">
          <mxGeometry width="60" height="20" as="geometry" />
        </mxCell>
        <mxCell id="7e6ycA0EHB4q4oPhDRhc-103" value="" style="group" parent="7e6ycA0EHB4q4oPhDRhc-101" vertex="1" connectable="0">
          <mxGeometry y="20" width="60" height="80" as="geometry" />
        </mxCell>
        <mxCell id="7e6ycA0EHB4q4oPhDRhc-104" value="" style="rounded=0;whiteSpace=wrap;html=1;movable=1;resizable=1;rotatable=1;deletable=1;editable=1;locked=0;connectable=1;" parent="7e6ycA0EHB4q4oPhDRhc-103" vertex="1">
          <mxGeometry width="60" height="80.00000000000001" as="geometry" />
        </mxCell>
        <mxCell id="7e6ycA0EHB4q4oPhDRhc-105" value="&lt;p style=&quot;line-height: 80%;&quot;&gt;op&lt;/p&gt;&lt;p style=&quot;line-height: 80%;&quot;&gt;din&lt;/p&gt;&lt;p style=&quot;line-height: 80%;&quot;&gt;&lt;br&gt;&lt;/p&gt;" style="text;html=1;strokeColor=none;fillColor=none;align=left;verticalAlign=middle;whiteSpace=wrap;rounded=0;movable=1;resizable=1;rotatable=1;deletable=1;editable=1;locked=0;connectable=1;spacingLeft=4;spacingBottom=0;spacing=2;horizontal=1;" parent="7e6ycA0EHB4q4oPhDRhc-103" vertex="1">
          <mxGeometry width="24" height="80" as="geometry" />
        </mxCell>
        <mxCell id="7e6ycA0EHB4q4oPhDRhc-106" value="&lt;p style=&quot;line-height: 120%;&quot;&gt;&lt;span style=&quot;background-color: initial;&quot;&gt;ext&lt;/span&gt;&lt;br&gt;&lt;/p&gt;" style="text;html=1;strokeColor=none;fillColor=none;align=right;verticalAlign=middle;whiteSpace=wrap;rounded=0;movable=1;resizable=1;rotatable=1;deletable=1;editable=1;locked=0;connectable=1;spacingRight=4;" parent="7e6ycA0EHB4q4oPhDRhc-103" vertex="1">
          <mxGeometry x="36" width="24" height="80" as="geometry" />
        </mxCell>
        <mxCell id="7e6ycA0EHB4q4oPhDRhc-134" value="" style="group;spacing=10;" parent="1" vertex="1" connectable="0">
          <mxGeometry x="269.92" y="320" width="80" height="100" as="geometry" />
        </mxCell>
        <mxCell id="7e6ycA0EHB4q4oPhDRhc-135" value="IROM" style="text;html=1;strokeColor=none;fillColor=none;align=center;verticalAlign=middle;whiteSpace=wrap;rounded=0;fontSize=20;" parent="7e6ycA0EHB4q4oPhDRhc-134" vertex="1">
          <mxGeometry width="80" height="20" as="geometry" />
        </mxCell>
        <mxCell id="7e6ycA0EHB4q4oPhDRhc-136" value="" style="group" parent="7e6ycA0EHB4q4oPhDRhc-134" vertex="1" connectable="0">
          <mxGeometry y="20" width="80" height="80" as="geometry" />
        </mxCell>
        <mxCell id="7e6ycA0EHB4q4oPhDRhc-137" value="" style="rounded=0;whiteSpace=wrap;html=1;movable=1;resizable=1;rotatable=1;deletable=1;editable=1;locked=0;connectable=1;" parent="7e6ycA0EHB4q4oPhDRhc-136" vertex="1">
          <mxGeometry width="80" height="80.00000000000001" as="geometry" />
        </mxCell>
        <mxCell id="7e6ycA0EHB4q4oPhDRhc-138" value="&lt;p style=&quot;line-height: 120%;&quot;&gt;addr&lt;/p&gt;" style="text;html=1;strokeColor=none;fillColor=none;align=left;verticalAlign=middle;whiteSpace=wrap;rounded=0;movable=1;resizable=1;rotatable=1;deletable=1;editable=1;locked=0;connectable=1;spacingLeft=4;spacingBottom=0;spacing=2;horizontal=1;" parent="7e6ycA0EHB4q4oPhDRhc-136" vertex="1">
          <mxGeometry width="32" height="80" as="geometry" />
        </mxCell>
        <mxCell id="Yz_Gi2wW_Vq1L69UiVC6-89" style="edgeStyle=orthogonalEdgeStyle;rounded=0;orthogonalLoop=1;jettySize=auto;html=1;exitX=1;exitY=0.5;exitDx=0;exitDy=0;" parent="7e6ycA0EHB4q4oPhDRhc-136" source="7e6ycA0EHB4q4oPhDRhc-139" edge="1">
          <mxGeometry relative="1" as="geometry">
            <mxPoint x="80.20000000000005" y="40" as="targetPoint" />
          </mxGeometry>
        </mxCell>
        <mxCell id="7e6ycA0EHB4q4oPhDRhc-139" value="&lt;p style=&quot;line-height: 120%;&quot;&gt;&lt;span style=&quot;background-color: initial;&quot;&gt;inst&lt;/span&gt;&lt;br&gt;&lt;/p&gt;" style="text;html=1;strokeColor=none;fillColor=none;align=right;verticalAlign=middle;whiteSpace=wrap;rounded=0;movable=1;resizable=1;rotatable=1;deletable=1;editable=1;locked=0;connectable=1;spacingRight=4;" parent="7e6ycA0EHB4q4oPhDRhc-136" vertex="1">
          <mxGeometry x="48" width="32" height="80" as="geometry" />
        </mxCell>
        <mxCell id="7e6ycA0EHB4q4oPhDRhc-146" value="" style="group;movable=1;resizable=1;rotatable=1;deletable=1;editable=1;locked=0;connectable=1;" parent="1" vertex="1" connectable="0">
          <mxGeometry x="149.92000000000002" y="320" width="80" height="100" as="geometry" />
        </mxCell>
        <mxCell id="7e6ycA0EHB4q4oPhDRhc-147" value="PC" style="text;html=1;strokeColor=none;fillColor=none;align=center;verticalAlign=middle;whiteSpace=wrap;rounded=0;fontSize=20;container=0;movable=1;resizable=1;rotatable=1;deletable=1;editable=1;locked=0;connectable=1;" parent="7e6ycA0EHB4q4oPhDRhc-146" vertex="1">
          <mxGeometry width="80" height="19.279999999999994" as="geometry" />
        </mxCell>
        <mxCell id="7e6ycA0EHB4q4oPhDRhc-148" value="" style="rounded=0;whiteSpace=wrap;html=1;movable=1;resizable=1;rotatable=1;deletable=1;editable=1;locked=0;connectable=1;container=0;" parent="7e6ycA0EHB4q4oPhDRhc-146" vertex="1">
          <mxGeometry y="19.999999999999993" width="80" height="80" as="geometry" />
        </mxCell>
        <mxCell id="7e6ycA0EHB4q4oPhDRhc-149" value="&lt;p style=&quot;line-height: 60%;&quot;&gt;rst&lt;/p&gt;&lt;p style=&quot;line-height: 60%;&quot;&gt;din&lt;/p&gt;&lt;p style=&quot;line-height: 60%;&quot;&gt;&lt;br&gt;&lt;/p&gt;" style="text;html=1;strokeColor=none;fillColor=none;align=left;verticalAlign=middle;whiteSpace=wrap;rounded=0;movable=1;resizable=1;rotatable=1;deletable=1;editable=1;locked=0;connectable=1;spacingLeft=4;spacingBottom=0;spacing=2;horizontal=1;container=0;" parent="7e6ycA0EHB4q4oPhDRhc-146" vertex="1">
          <mxGeometry y="19.999999999999993" width="32" height="80" as="geometry" />
        </mxCell>
        <mxCell id="7e6ycA0EHB4q4oPhDRhc-150" value="&lt;p style=&quot;line-height: 150%;&quot;&gt;pc&lt;/p&gt;" style="text;html=1;strokeColor=none;fillColor=none;align=right;verticalAlign=middle;whiteSpace=wrap;rounded=0;movable=1;resizable=1;rotatable=1;deletable=1;editable=1;locked=0;connectable=1;spacingRight=4;container=0;" parent="7e6ycA0EHB4q4oPhDRhc-146" vertex="1">
          <mxGeometry x="48" y="19.999999999999993" width="32" height="80" as="geometry" />
        </mxCell>
        <mxCell id="7e6ycA0EHB4q4oPhDRhc-151" value="" style="endArrow=none;html=1;rounded=0;exitX=1;exitY=1;exitDx=0;exitDy=0;entryX=0;entryY=1;entryDx=0;entryDy=0;movable=1;resizable=1;rotatable=1;deletable=1;editable=1;locked=0;connectable=1;" parent="7e6ycA0EHB4q4oPhDRhc-146" source="7e6ycA0EHB4q4oPhDRhc-149" target="7e6ycA0EHB4q4oPhDRhc-150" edge="1">
          <mxGeometry width="50" height="50" relative="1" as="geometry">
            <mxPoint x="27.5" y="99.99999999999997" as="sourcePoint" />
            <mxPoint x="50" y="99.99999999999997" as="targetPoint" />
            <Array as="points">
              <mxPoint x="40" y="89.62566844919785" />
            </Array>
          </mxGeometry>
        </mxCell>
        <mxCell id="7e6ycA0EHB4q4oPhDRhc-153" style="edgeStyle=orthogonalEdgeStyle;rounded=0;orthogonalLoop=1;jettySize=auto;html=1;entryX=0;entryY=0.5;entryDx=0;entryDy=0;" parent="1" source="Yz_Gi2wW_Vq1L69UiVC6-192" target="7e6ycA0EHB4q4oPhDRhc-138" edge="1">
          <mxGeometry relative="1" as="geometry" />
        </mxCell>
        <mxCell id="7e6ycA0EHB4q4oPhDRhc-154" value="" style="group;movable=1;resizable=1;rotatable=1;deletable=1;editable=1;locked=0;connectable=1;" parent="1" vertex="1" connectable="0">
          <mxGeometry x="640" y="391.57" width="70" height="140" as="geometry" />
        </mxCell>
        <mxCell id="7eX2QJKc9km2dqGkhQNE-214" value="" style="group" vertex="1" connectable="0" parent="7e6ycA0EHB4q4oPhDRhc-154">
          <mxGeometry y="10" width="70" height="130" as="geometry" />
        </mxCell>
        <mxCell id="7e6ycA0EHB4q4oPhDRhc-155" value="RF" style="text;html=1;strokeColor=none;fillColor=none;align=center;verticalAlign=middle;whiteSpace=wrap;rounded=0;fontSize=20;container=0;movable=1;resizable=1;rotatable=1;deletable=1;editable=1;locked=0;connectable=1;" parent="7eX2QJKc9km2dqGkhQNE-214" vertex="1">
          <mxGeometry width="70" height="17" as="geometry" />
        </mxCell>
        <mxCell id="7e6ycA0EHB4q4oPhDRhc-156" value="" style="rounded=0;whiteSpace=wrap;html=1;movable=1;resizable=1;rotatable=1;deletable=1;editable=1;locked=0;connectable=1;container=0;" parent="7eX2QJKc9km2dqGkhQNE-214" vertex="1">
          <mxGeometry y="18" width="70" height="112" as="geometry" />
        </mxCell>
        <mxCell id="7e6ycA0EHB4q4oPhDRhc-157" value="&lt;p style=&quot;line-height: 70%;&quot;&gt;rR1&lt;/p&gt;&lt;p style=&quot;line-height: 70%;&quot;&gt;rR2&lt;/p&gt;&lt;p style=&quot;line-height: 70%;&quot;&gt;wR&lt;/p&gt;&lt;p style=&quot;line-height: 70%;&quot;&gt;we&lt;/p&gt;&lt;p style=&quot;line-height: 70%;&quot;&gt;wD&lt;/p&gt;" style="text;html=1;strokeColor=none;fillColor=none;align=left;verticalAlign=middle;whiteSpace=wrap;rounded=0;movable=1;resizable=1;rotatable=1;deletable=1;editable=1;locked=0;connectable=1;spacingLeft=4;spacingBottom=0;spacing=2;horizontal=1;container=0;points=[[0,0,0,0,0],[0,0.14,0,0,0],[0,0.32,0,0,0],[0,0.5,0,0,0],[0,0.7,0,0,0],[0,0.88,0,0,0],[0,1,0,0,0],[0.25,0,0,0,0],[0.25,1,0,0,0],[0.5,0,0,0,0],[0.5,1,0,0,0],[0.75,0,0,0,0],[0.75,1,0,0,0],[1,0,0,0,0],[1,1,0,0,0]];" parent="7eX2QJKc9km2dqGkhQNE-214" vertex="1">
          <mxGeometry y="17.999999999999993" width="28" height="112" as="geometry" />
        </mxCell>
        <mxCell id="7e6ycA0EHB4q4oPhDRhc-158" value="&lt;p style=&quot;line-height: 330%;&quot;&gt;rD1&lt;/p&gt;&lt;p style=&quot;line-height: 330%;&quot;&gt;rD2&lt;/p&gt;" style="text;html=1;strokeColor=none;fillColor=none;align=right;verticalAlign=middle;whiteSpace=wrap;rounded=0;movable=1;resizable=1;rotatable=1;deletable=1;editable=1;locked=0;connectable=1;spacingRight=4;container=0;" parent="7eX2QJKc9km2dqGkhQNE-214" vertex="1">
          <mxGeometry x="42" y="17.999999999999993" width="28" height="112" as="geometry" />
        </mxCell>
        <mxCell id="7e6ycA0EHB4q4oPhDRhc-159" value="" style="endArrow=none;html=1;rounded=0;exitX=1;exitY=1;exitDx=0;exitDy=0;entryX=0;entryY=1;entryDx=0;entryDy=0;movable=1;resizable=1;rotatable=1;deletable=1;editable=1;locked=0;connectable=1;" parent="7eX2QJKc9km2dqGkhQNE-214" source="7e6ycA0EHB4q4oPhDRhc-157" target="7e6ycA0EHB4q4oPhDRhc-158" edge="1">
          <mxGeometry width="50" height="50" relative="1" as="geometry">
            <mxPoint x="24.0625" y="129.99999999999997" as="sourcePoint" />
            <mxPoint x="43.75" y="129.99999999999997" as="targetPoint" />
            <Array as="points">
              <mxPoint x="35" y="115.47593582887701" />
            </Array>
          </mxGeometry>
        </mxCell>
        <mxCell id="Yz_Gi2wW_Vq1L69UiVC6-51" value="" style="group;rotation=90;spacingLeft=4;" parent="1" vertex="1" connectable="0">
          <mxGeometry x="965.4" y="440" width="100" height="71.43" as="geometry" />
        </mxCell>
        <mxCell id="Yz_Gi2wW_Vq1L69UiVC6-47" value="" style="shape=trapezoid;perimeter=trapezoidPerimeter;whiteSpace=wrap;html=1;fixedSize=1;rotation=90;" parent="Yz_Gi2wW_Vq1L69UiVC6-51" vertex="1">
          <mxGeometry x="-8.156565656565656" y="4.081714285714286" width="100" height="53.572500000000005" as="geometry" />
        </mxCell>
        <mxCell id="Yz_Gi2wW_Vq1L69UiVC6-48" value="" style="endArrow=none;html=1;rounded=0;exitX=0.399;exitY=0.998;exitDx=0;exitDy=0;exitPerimeter=0;entryX=0.5;entryY=0.667;entryDx=0;entryDy=0;entryPerimeter=0;" parent="Yz_Gi2wW_Vq1L69UiVC6-51" source="Yz_Gi2wW_Vq1L69UiVC6-47" target="Yz_Gi2wW_Vq1L69UiVC6-47" edge="1">
          <mxGeometry width="50" height="50" relative="1" as="geometry">
            <mxPoint x="33.510101010101" y="75.51171428571429" as="sourcePoint" />
            <mxPoint x="25.17676767676767" y="21.939214285714286" as="targetPoint" />
          </mxGeometry>
        </mxCell>
        <mxCell id="Yz_Gi2wW_Vq1L69UiVC6-49" value="" style="endArrow=none;html=1;rounded=0;entryX=0.599;entryY=0.998;entryDx=0;entryDy=0;entryPerimeter=0;" parent="Yz_Gi2wW_Vq1L69UiVC6-51" target="Yz_Gi2wW_Vq1L69UiVC6-47" edge="1">
          <mxGeometry width="50" height="50" relative="1" as="geometry">
            <mxPoint x="33.510101010101" y="30.867964285714287" as="sourcePoint" />
            <mxPoint x="75.17676767676767" y="120.15546428571429" as="targetPoint" />
          </mxGeometry>
        </mxCell>
        <mxCell id="Yz_Gi2wW_Vq1L69UiVC6-50" value="" style="endArrow=none;html=1;rounded=0;exitX=0.402;exitY=1.002;exitDx=0;exitDy=0;exitPerimeter=0;entryX=0.599;entryY=1.002;entryDx=0;entryDy=0;entryPerimeter=0;strokeColor=#FFFFFF;" parent="Yz_Gi2wW_Vq1L69UiVC6-51" source="Yz_Gi2wW_Vq1L69UiVC6-47" target="Yz_Gi2wW_Vq1L69UiVC6-47" edge="1">
          <mxGeometry width="50" height="50" relative="1" as="geometry">
            <mxPoint x="8.51010101010101" y="57.65421428571429" as="sourcePoint" />
            <mxPoint x="50.176767676767675" y="102.2979642857143" as="targetPoint" />
          </mxGeometry>
        </mxCell>
        <mxCell id="Yz_Gi2wW_Vq1L69UiVC6-56" value="op" style="text;html=1;strokeColor=none;fillColor=none;align=center;verticalAlign=middle;whiteSpace=wrap;rounded=0;spacingTop=-7;" parent="Yz_Gi2wW_Vq1L69UiVC6-51" vertex="1">
          <mxGeometry x="11.839999999999918" y="-8.060000000000002" width="60" height="30" as="geometry" />
        </mxCell>
        <mxCell id="Yz_Gi2wW_Vq1L69UiVC6-52" value="a&lt;br&gt;&amp;nbsp;" style="text;html=1;strokeColor=none;fillColor=none;align=left;verticalAlign=middle;whiteSpace=wrap;rounded=0;spacingLeft=1;" parent="Yz_Gi2wW_Vq1L69UiVC6-51" vertex="1">
          <mxGeometry x="16.84343434343434" y="-4.847035714285713" width="25" height="26.786250000000003" as="geometry" />
        </mxCell>
        <mxCell id="Yz_Gi2wW_Vq1L69UiVC6-53" value="b" style="text;html=1;strokeColor=none;fillColor=none;align=left;verticalAlign=middle;whiteSpace=wrap;rounded=0;spacingLeft=1;" parent="Yz_Gi2wW_Vq1L69UiVC6-51" vertex="1">
          <mxGeometry x="16.84343434343434" y="49.99671428571429" width="25" height="26.786250000000003" as="geometry" />
        </mxCell>
        <mxCell id="Yz_Gi2wW_Vq1L69UiVC6-57" value="&lt;p style=&quot;line-height: 200%;&quot;&gt;c&lt;br&gt;comp&lt;/p&gt;" style="text;html=1;strokeColor=none;fillColor=none;align=right;verticalAlign=middle;whiteSpace=wrap;rounded=0;spacingRight=3;" parent="Yz_Gi2wW_Vq1L69UiVC6-51" vertex="1">
          <mxGeometry x="11.84" y="8.8" width="58.16" height="44.13" as="geometry" />
        </mxCell>
        <mxCell id="Yz_Gi2wW_Vq1L69UiVC6-55" value="ALU" style="text;html=1;strokeColor=none;fillColor=none;align=center;verticalAlign=middle;whiteSpace=wrap;rounded=0;fontSize=20;container=0;movable=1;resizable=1;rotatable=1;deletable=1;editable=1;locked=0;connectable=1;" parent="1" vertex="1">
          <mxGeometry x="935.4" y="391.57" width="80" height="23.14" as="geometry" />
        </mxCell>
        <mxCell id="Yz_Gi2wW_Vq1L69UiVC6-74" value="" style="group;movable=1;resizable=1;rotatable=1;deletable=1;editable=1;locked=0;connectable=1;" parent="1" vertex="1" connectable="0">
          <mxGeometry x="1225" y="355" width="80" height="120" as="geometry" />
        </mxCell>
        <mxCell id="Yz_Gi2wW_Vq1L69UiVC6-75" value="DRAM" style="text;html=1;strokeColor=none;fillColor=none;align=center;verticalAlign=middle;whiteSpace=wrap;rounded=0;fontSize=20;container=0;movable=1;resizable=1;rotatable=1;deletable=1;editable=1;locked=0;connectable=1;" parent="Yz_Gi2wW_Vq1L69UiVC6-74" vertex="1">
          <mxGeometry width="80" height="20" as="geometry" />
        </mxCell>
        <mxCell id="Yz_Gi2wW_Vq1L69UiVC6-76" value="" style="rounded=0;whiteSpace=wrap;html=1;movable=1;resizable=1;rotatable=1;deletable=1;editable=1;locked=0;connectable=1;container=0;" parent="Yz_Gi2wW_Vq1L69UiVC6-74" vertex="1">
          <mxGeometry y="20" width="80" height="100" as="geometry" />
        </mxCell>
        <mxCell id="Yz_Gi2wW_Vq1L69UiVC6-77" value="&lt;p style=&quot;line-height: 60%;&quot;&gt;we&lt;/p&gt;&lt;p style=&quot;line-height: 60%;&quot;&gt;r_op&lt;/p&gt;&lt;p style=&quot;line-height: 60%;&quot;&gt;w_op&lt;/p&gt;&lt;p style=&quot;line-height: 60%;&quot;&gt;addr&lt;/p&gt;&lt;p style=&quot;line-height: 60%;&quot;&gt;wdin&lt;/p&gt;" style="text;html=1;strokeColor=none;fillColor=none;align=left;verticalAlign=middle;whiteSpace=wrap;rounded=0;movable=1;resizable=1;rotatable=1;deletable=1;editable=1;locked=0;connectable=1;spacingLeft=4;spacingBottom=0;spacing=2;horizontal=1;container=0;points=[[0,0,0,0,0],[0,0.1,0,0,0],[0,0.31,0,0,0],[0,0.53,0,0,0],[0,0.72,0,0,0],[0,0.91,0,0,0],[0,1,0,0,0],[0.25,0,0,0,0],[0.25,1,0,0,0],[0.5,0,0,0,0],[0.5,1,0,0,0],[0.75,0,0,0,0],[0.75,1,0,0,0],[1,0,0,0,0],[1,0.25,0,0,0],[1,0.5,0,0,0],[1,0.75,0,0,0],[1,1,0,0,0]];" parent="Yz_Gi2wW_Vq1L69UiVC6-74" vertex="1">
          <mxGeometry y="23.999999999999986" width="32" height="96" as="geometry" />
        </mxCell>
        <mxCell id="Yz_Gi2wW_Vq1L69UiVC6-78" value="&lt;p style=&quot;line-height: 150%;&quot;&gt;rdo&lt;/p&gt;" style="text;html=1;strokeColor=none;fillColor=none;align=right;verticalAlign=middle;whiteSpace=wrap;rounded=0;movable=1;resizable=1;rotatable=1;deletable=1;editable=1;locked=0;connectable=1;spacingRight=4;container=0;" parent="Yz_Gi2wW_Vq1L69UiVC6-74" vertex="1">
          <mxGeometry x="48" y="23.999999999999986" width="32" height="96" as="geometry" />
        </mxCell>
        <mxCell id="Yz_Gi2wW_Vq1L69UiVC6-79" value="" style="endArrow=none;html=1;rounded=0;exitX=1;exitY=1;exitDx=0;exitDy=0;entryX=0;entryY=1;entryDx=0;entryDy=0;movable=1;resizable=1;rotatable=1;deletable=1;editable=1;locked=0;connectable=1;" parent="Yz_Gi2wW_Vq1L69UiVC6-74" source="Yz_Gi2wW_Vq1L69UiVC6-77" target="Yz_Gi2wW_Vq1L69UiVC6-78" edge="1">
          <mxGeometry width="50" height="50" relative="1" as="geometry">
            <mxPoint x="27.5" y="119.99999999999994" as="sourcePoint" />
            <mxPoint x="50" y="119.99999999999994" as="targetPoint" />
            <Array as="points">
              <mxPoint x="40" y="107.5508021390374" />
            </Array>
          </mxGeometry>
        </mxCell>
        <mxCell id="Yz_Gi2wW_Vq1L69UiVC6-80" style="edgeStyle=orthogonalEdgeStyle;rounded=0;orthogonalLoop=1;jettySize=auto;html=1;entryX=-0.01;entryY=0.371;entryDx=0;entryDy=0;entryPerimeter=0;" parent="1" edge="1" target="Yz_Gi2wW_Vq1L69UiVC6-40">
          <mxGeometry relative="1" as="geometry">
            <mxPoint x="600" y="230" as="targetPoint" />
            <mxPoint x="540" y="230" as="sourcePoint" />
            <Array as="points" />
          </mxGeometry>
        </mxCell>
        <mxCell id="Yz_Gi2wW_Vq1L69UiVC6-85" style="edgeStyle=orthogonalEdgeStyle;rounded=0;orthogonalLoop=1;jettySize=auto;html=1;entryX=-0.003;entryY=0.475;entryDx=0;entryDy=0;entryPerimeter=0;" parent="1" edge="1" target="Yz_Gi2wW_Vq1L69UiVC6-40">
          <mxGeometry relative="1" as="geometry">
            <mxPoint x="540" y="250" as="sourcePoint" />
            <mxPoint x="600" y="250" as="targetPoint" />
            <Array as="points" />
          </mxGeometry>
        </mxCell>
        <mxCell id="Yz_Gi2wW_Vq1L69UiVC6-92" style="edgeStyle=orthogonalEdgeStyle;rounded=0;orthogonalLoop=1;jettySize=auto;html=1;endArrow=none;endFill=0;" parent="1" source="Yz_Gi2wW_Vq1L69UiVC6-128" edge="1">
          <mxGeometry relative="1" as="geometry">
            <mxPoint x="540" y="270" as="sourcePoint" />
            <mxPoint x="540" y="250" as="targetPoint" />
          </mxGeometry>
        </mxCell>
        <mxCell id="Yz_Gi2wW_Vq1L69UiVC6-94" value="" style="edgeStyle=orthogonalEdgeStyle;rounded=0;orthogonalLoop=1;jettySize=auto;html=1;entryDx=0;entryDy=0;entryPerimeter=0;endArrow=none;endFill=0;" parent="1" source="Yz_Gi2wW_Vq1L69UiVC6-130" edge="1">
          <mxGeometry relative="1" as="geometry">
            <mxPoint x="520" y="360" as="sourcePoint" />
            <mxPoint x="540" y="270" as="targetPoint" />
          </mxGeometry>
        </mxCell>
        <mxCell id="Yz_Gi2wW_Vq1L69UiVC6-127" value="" style="edgeStyle=orthogonalEdgeStyle;rounded=0;orthogonalLoop=1;jettySize=auto;html=1;endArrow=none;endFill=0;" parent="1" source="Yz_Gi2wW_Vq1L69UiVC6-128" edge="1">
          <mxGeometry relative="1" as="geometry">
            <mxPoint x="540" y="230" as="targetPoint" />
            <mxPoint x="540" y="250" as="sourcePoint" />
            <Array as="points" />
          </mxGeometry>
        </mxCell>
        <mxCell id="Yz_Gi2wW_Vq1L69UiVC6-129" value="" style="edgeStyle=orthogonalEdgeStyle;rounded=0;orthogonalLoop=1;jettySize=auto;html=1;endArrow=none;endFill=0;" parent="1" target="Yz_Gi2wW_Vq1L69UiVC6-128" edge="1">
          <mxGeometry relative="1" as="geometry">
            <mxPoint x="540" y="270" as="sourcePoint" />
            <mxPoint x="540" y="250" as="targetPoint" />
          </mxGeometry>
        </mxCell>
        <mxCell id="Yz_Gi2wW_Vq1L69UiVC6-131" value="" style="edgeStyle=orthogonalEdgeStyle;rounded=0;orthogonalLoop=1;jettySize=auto;html=1;entryDx=0;entryDy=0;entryPerimeter=0;endArrow=none;endFill=0;" parent="1" source="Yz_Gi2wW_Vq1L69UiVC6-132" target="Yz_Gi2wW_Vq1L69UiVC6-130" edge="1">
          <mxGeometry relative="1" as="geometry">
            <mxPoint x="520" y="360" as="sourcePoint" />
            <mxPoint x="540" y="270" as="targetPoint" />
          </mxGeometry>
        </mxCell>
        <mxCell id="Yz_Gi2wW_Vq1L69UiVC6-130" value="" style="shape=waypoint;sketch=0;fillStyle=solid;size=6;pointerEvents=1;points=[];fillColor=none;resizable=0;rotatable=0;perimeter=centerPerimeter;snapToPoint=1;" parent="1" vertex="1">
          <mxGeometry x="530" y="260" width="20" height="20" as="geometry" />
        </mxCell>
        <mxCell id="Yz_Gi2wW_Vq1L69UiVC6-136" style="edgeStyle=orthogonalEdgeStyle;rounded=0;orthogonalLoop=1;jettySize=auto;html=1;endArrow=none;endFill=0;" parent="1" source="Yz_Gi2wW_Vq1L69UiVC6-132" target="Yz_Gi2wW_Vq1L69UiVC6-135" edge="1">
          <mxGeometry relative="1" as="geometry" />
        </mxCell>
        <mxCell id="7eX2QJKc9km2dqGkhQNE-45" style="edgeStyle=orthogonalEdgeStyle;rounded=0;orthogonalLoop=1;jettySize=auto;html=1;entryX=0;entryY=0.63;entryDx=0;entryDy=0;entryPerimeter=0;" edge="1" parent="1" source="Yz_Gi2wW_Vq1L69UiVC6-132" target="7eX2QJKc9km2dqGkhQNE-28">
          <mxGeometry relative="1" as="geometry">
            <Array as="points">
              <mxPoint x="805" y="380" />
              <mxPoint x="805" y="448" />
            </Array>
          </mxGeometry>
        </mxCell>
        <mxCell id="Yz_Gi2wW_Vq1L69UiVC6-132" value="" style="shape=waypoint;sketch=0;fillStyle=solid;size=6;pointerEvents=1;points=[];fillColor=none;resizable=0;rotatable=0;perimeter=centerPerimeter;snapToPoint=1;" parent="1" vertex="1">
          <mxGeometry x="530" y="370.19" width="20" height="20" as="geometry" />
        </mxCell>
        <mxCell id="Yz_Gi2wW_Vq1L69UiVC6-137" style="edgeStyle=orthogonalEdgeStyle;rounded=0;orthogonalLoop=1;jettySize=auto;html=1;" parent="1" source="Yz_Gi2wW_Vq1L69UiVC6-135" edge="1">
          <mxGeometry relative="1" as="geometry">
            <mxPoint x="640" y="440" as="targetPoint" />
            <Array as="points">
              <mxPoint x="640" y="440" />
            </Array>
          </mxGeometry>
        </mxCell>
        <mxCell id="Yz_Gi2wW_Vq1L69UiVC6-144" style="edgeStyle=orthogonalEdgeStyle;rounded=0;orthogonalLoop=1;jettySize=auto;html=1;endArrow=none;endFill=0;" parent="1" source="Yz_Gi2wW_Vq1L69UiVC6-135" edge="1">
          <mxGeometry relative="1" as="geometry">
            <mxPoint x="540" y="460" as="targetPoint" />
          </mxGeometry>
        </mxCell>
        <mxCell id="eyDitWQQ_WvtDu5DvkL3-5" style="edgeStyle=orthogonalEdgeStyle;rounded=0;orthogonalLoop=1;jettySize=auto;html=1;entryX=0;entryY=0.5;entryDx=0;entryDy=0;" parent="1" source="Yz_Gi2wW_Vq1L69UiVC6-135" target="7e6ycA0EHB4q4oPhDRhc-105" edge="1">
          <mxGeometry relative="1" as="geometry">
            <Array as="points">
              <mxPoint x="465" y="440" />
              <mxPoint x="465" y="560" />
            </Array>
          </mxGeometry>
        </mxCell>
        <mxCell id="Yz_Gi2wW_Vq1L69UiVC6-135" value="" style="shape=waypoint;sketch=0;fillStyle=solid;size=6;pointerEvents=1;points=[];fillColor=none;resizable=0;rotatable=0;perimeter=centerPerimeter;snapToPoint=1;" parent="1" vertex="1">
          <mxGeometry x="530" y="430" width="20" height="20" as="geometry" />
        </mxCell>
        <mxCell id="Yz_Gi2wW_Vq1L69UiVC6-139" style="edgeStyle=orthogonalEdgeStyle;rounded=0;orthogonalLoop=1;jettySize=auto;html=1;" parent="1" edge="1">
          <mxGeometry relative="1" as="geometry">
            <mxPoint x="640" y="460" as="targetPoint" />
            <Array as="points">
              <mxPoint x="640" y="460" />
            </Array>
            <mxPoint x="540" y="460" as="sourcePoint" />
          </mxGeometry>
        </mxCell>
        <mxCell id="7eX2QJKc9km2dqGkhQNE-221" style="edgeStyle=orthogonalEdgeStyle;rounded=0;orthogonalLoop=1;jettySize=auto;html=1;" edge="1" parent="1" source="Yz_Gi2wW_Vq1L69UiVC6-154">
          <mxGeometry relative="1" as="geometry">
            <mxPoint x="980" y="503.3900000000002" as="targetPoint" />
            <Array as="points">
              <mxPoint x="975" y="504" />
              <mxPoint x="975" y="504" />
            </Array>
          </mxGeometry>
        </mxCell>
        <mxCell id="Yz_Gi2wW_Vq1L69UiVC6-154" value="" style="rounded=0;whiteSpace=wrap;html=1;rotation=90;" parent="1" vertex="1">
          <mxGeometry x="935" y="493.57000000000016" width="40.4" height="19.64" as="geometry" />
        </mxCell>
        <mxCell id="Yz_Gi2wW_Vq1L69UiVC6-193" value="" style="edgeStyle=orthogonalEdgeStyle;rounded=0;orthogonalLoop=1;jettySize=auto;html=1;entryDx=0;entryDy=0;endArrow=none;endFill=0;exitX=1;exitY=0.5;exitDx=0;exitDy=0;" parent="1" source="7e6ycA0EHB4q4oPhDRhc-150" target="Yz_Gi2wW_Vq1L69UiVC6-192" edge="1">
          <mxGeometry relative="1" as="geometry">
            <mxPoint x="269.92" y="380" as="sourcePoint" />
            <mxPoint x="349.92" y="380" as="targetPoint" />
          </mxGeometry>
        </mxCell>
        <mxCell id="eyDitWQQ_WvtDu5DvkL3-7" value="6:0" style="text;html=1;strokeColor=none;fillColor=none;align=center;verticalAlign=middle;whiteSpace=wrap;rounded=0;" parent="1" vertex="1">
          <mxGeometry x="550" y="210" width="30" height="20" as="geometry" />
        </mxCell>
        <mxCell id="eyDitWQQ_WvtDu5DvkL3-8" value="14:12" style="text;html=1;strokeColor=none;fillColor=none;align=center;verticalAlign=middle;whiteSpace=wrap;rounded=0;" parent="1" vertex="1">
          <mxGeometry x="550" y="230" width="30" height="20" as="geometry" />
        </mxCell>
        <mxCell id="eyDitWQQ_WvtDu5DvkL3-9" value="31:25" style="text;html=1;strokeColor=none;fillColor=none;align=center;verticalAlign=middle;whiteSpace=wrap;rounded=0;" parent="1" vertex="1">
          <mxGeometry x="550" y="250" width="30" height="20" as="geometry" />
        </mxCell>
        <mxCell id="eyDitWQQ_WvtDu5DvkL3-10" value="19:15" style="text;html=1;strokeColor=none;fillColor=none;align=center;verticalAlign=middle;whiteSpace=wrap;rounded=0;" parent="1" vertex="1">
          <mxGeometry x="550" y="420" width="30" height="20" as="geometry" />
        </mxCell>
        <mxCell id="eyDitWQQ_WvtDu5DvkL3-11" value="24:20" style="text;html=1;strokeColor=none;fillColor=none;align=center;verticalAlign=middle;whiteSpace=wrap;rounded=0;" parent="1" vertex="1">
          <mxGeometry x="550" y="440" width="30" height="20" as="geometry" />
        </mxCell>
        <mxCell id="eyDitWQQ_WvtDu5DvkL3-12" value="11:7" style="text;html=1;strokeColor=none;fillColor=none;align=center;verticalAlign=middle;whiteSpace=wrap;rounded=0;" parent="1" vertex="1">
          <mxGeometry x="550" y="362.78" width="25" height="15.56" as="geometry" />
        </mxCell>
        <mxCell id="eyDitWQQ_WvtDu5DvkL3-13" value="31:7" style="text;html=1;strokeColor=none;fillColor=none;align=center;verticalAlign=middle;whiteSpace=wrap;rounded=0;" parent="1" vertex="1">
          <mxGeometry x="500" y="420" width="30" height="20" as="geometry" />
        </mxCell>
        <mxCell id="9RBRxGLcYgm-sYh3yQ8s-4" style="edgeStyle=orthogonalEdgeStyle;rounded=0;orthogonalLoop=1;jettySize=auto;html=1;entryX=0.5;entryY=1;entryDx=0;entryDy=0;exitX=1;exitY=0.5;exitDx=0;exitDy=0;" parent="1" source="9RBRxGLcYgm-sYh3yQ8s-2" target="7e6ycA0EHB4q4oPhDRhc-156" edge="1">
          <mxGeometry relative="1" as="geometry" />
        </mxCell>
        <mxCell id="9RBRxGLcYgm-sYh3yQ8s-2" value="clk" style="text;html=1;strokeColor=none;fillColor=none;align=center;verticalAlign=middle;whiteSpace=wrap;rounded=0;" parent="1" vertex="1">
          <mxGeometry x="640" y="540" width="30" height="20" as="geometry" />
        </mxCell>
        <mxCell id="c12Zz6_BwPpkW7wppEjt-4" value="32" style="text;html=1;strokeColor=none;fillColor=none;align=center;verticalAlign=middle;whiteSpace=wrap;rounded=0;" parent="1" vertex="1">
          <mxGeometry x="520" y="365" width="20" height="15" as="geometry" />
        </mxCell>
        <mxCell id="c12Zz6_BwPpkW7wppEjt-5" value="32" style="text;html=1;strokeColor=none;fillColor=none;align=center;verticalAlign=middle;whiteSpace=wrap;rounded=0;" parent="1" vertex="1">
          <mxGeometry x="560" y="545" width="20" height="15" as="geometry" />
        </mxCell>
        <mxCell id="c12Zz6_BwPpkW7wppEjt-10" value="3" style="text;html=1;strokeColor=none;fillColor=none;align=center;verticalAlign=middle;whiteSpace=wrap;rounded=0;" parent="1" vertex="1">
          <mxGeometry x="725" y="160" width="19.71" height="10" as="geometry" />
        </mxCell>
        <mxCell id="c12Zz6_BwPpkW7wppEjt-12" value="2" style="text;html=1;strokeColor=none;fillColor=none;align=center;verticalAlign=middle;whiteSpace=wrap;rounded=0;" parent="1" vertex="1">
          <mxGeometry x="725.29" y="180" width="20.58" height="10" as="geometry" />
        </mxCell>
        <mxCell id="7eX2QJKc9km2dqGkhQNE-35" style="edgeStyle=orthogonalEdgeStyle;rounded=0;orthogonalLoop=1;jettySize=auto;html=1;exitX=0;exitY=1;exitDx=0;exitDy=0;entryX=0;entryY=0.37;entryDx=0;entryDy=0;entryPerimeter=0;" edge="1" parent="1" source="c12Zz6_BwPpkW7wppEjt-13" target="7eX2QJKc9km2dqGkhQNE-28">
          <mxGeometry relative="1" as="geometry">
            <Array as="points">
              <mxPoint x="775" y="265" />
              <mxPoint x="775" y="313" />
            </Array>
          </mxGeometry>
        </mxCell>
        <mxCell id="c12Zz6_BwPpkW7wppEjt-13" value="4" style="text;html=1;strokeColor=none;fillColor=none;align=center;verticalAlign=middle;whiteSpace=wrap;rounded=0;" parent="1" vertex="1">
          <mxGeometry x="725.29" y="255" width="19.71" height="10" as="geometry" />
        </mxCell>
        <mxCell id="c12Zz6_BwPpkW7wppEjt-14" value="2" style="text;html=1;strokeColor=none;fillColor=none;align=center;verticalAlign=middle;whiteSpace=wrap;rounded=0;" parent="1" vertex="1">
          <mxGeometry x="724.7099999999999" y="325" width="19.71" height="10" as="geometry" />
        </mxCell>
        <mxCell id="7eX2QJKc9km2dqGkhQNE-32" style="edgeStyle=orthogonalEdgeStyle;rounded=0;orthogonalLoop=1;jettySize=auto;html=1;exitX=0;exitY=1;exitDx=0;exitDy=0;entryX=0;entryY=0.21;entryDx=0;entryDy=0;entryPerimeter=0;" edge="1" parent="1" source="c12Zz6_BwPpkW7wppEjt-15" target="7eX2QJKc9km2dqGkhQNE-28">
          <mxGeometry relative="1" as="geometry">
            <Array as="points">
              <mxPoint x="805" y="210" />
              <mxPoint x="805" y="229" />
            </Array>
          </mxGeometry>
        </mxCell>
        <mxCell id="c12Zz6_BwPpkW7wppEjt-15" value="1" style="text;html=1;strokeColor=none;fillColor=none;align=center;verticalAlign=middle;whiteSpace=wrap;rounded=0;" parent="1" vertex="1">
          <mxGeometry x="724.71" y="200" width="20.29" height="10" as="geometry" />
        </mxCell>
        <mxCell id="c12Zz6_BwPpkW7wppEjt-16" value="1" style="text;html=1;strokeColor=none;fillColor=none;align=center;verticalAlign=middle;whiteSpace=wrap;rounded=0;" parent="1" vertex="1">
          <mxGeometry x="725" y="290" width="20" height="10" as="geometry" />
        </mxCell>
        <mxCell id="7eX2QJKc9km2dqGkhQNE-38" style="edgeStyle=orthogonalEdgeStyle;rounded=0;orthogonalLoop=1;jettySize=auto;html=1;exitX=0;exitY=1;exitDx=0;exitDy=0;entryX=0;entryY=0.52;entryDx=0;entryDy=0;entryPerimeter=0;" edge="1" parent="1" source="c12Zz6_BwPpkW7wppEjt-17" target="7eX2QJKc9km2dqGkhQNE-28">
          <mxGeometry relative="1" as="geometry">
            <Array as="points">
              <mxPoint x="745" y="320" />
              <mxPoint x="745" y="391" />
            </Array>
          </mxGeometry>
        </mxCell>
        <mxCell id="c12Zz6_BwPpkW7wppEjt-17" value="1" style="text;html=1;strokeColor=none;fillColor=none;align=center;verticalAlign=middle;whiteSpace=wrap;rounded=0;" parent="1" vertex="1">
          <mxGeometry x="725" y="310" width="20" height="10" as="geometry" />
        </mxCell>
        <mxCell id="Yz_Gi2wW_Vq1L69UiVC6-99" style="edgeStyle=orthogonalEdgeStyle;rounded=0;orthogonalLoop=1;jettySize=auto;html=1;endArrow=none;endFill=0;startArrow=classic;startFill=1;exitX=-0.002;exitY=0.579;exitDx=0;exitDy=0;exitPerimeter=0;" parent="1" source="Yz_Gi2wW_Vq1L69UiVC6-40" edge="1">
          <mxGeometry relative="1" as="geometry">
            <mxPoint x="540" y="287.23031283710895" as="targetPoint" />
            <Array as="points">
              <mxPoint x="540" y="270" />
            </Array>
          </mxGeometry>
        </mxCell>
        <mxCell id="TK8NHG-VaEsM1Jr2HA9Q-2" value="" style="group" parent="1" vertex="1" connectable="0">
          <mxGeometry x="605" y="137" width="120.28571428571422" height="213" as="geometry" />
        </mxCell>
        <mxCell id="Yz_Gi2wW_Vq1L69UiVC6-37" value="Controller" style="text;html=1;strokeColor=none;fillColor=none;align=center;verticalAlign=middle;whiteSpace=wrap;rounded=0;fontSize=20;container=0;" parent="TK8NHG-VaEsM1Jr2HA9Q-2" vertex="1">
          <mxGeometry width="120" height="23.000000000000007" as="geometry" />
        </mxCell>
        <mxCell id="Yz_Gi2wW_Vq1L69UiVC6-39" value="" style="rounded=0;whiteSpace=wrap;html=1;movable=1;resizable=1;rotatable=1;deletable=1;editable=1;locked=0;connectable=1;container=0;" parent="TK8NHG-VaEsM1Jr2HA9Q-2" vertex="1">
          <mxGeometry y="23" width="120" height="190.00000000000003" as="geometry" />
        </mxCell>
        <mxCell id="Yz_Gi2wW_Vq1L69UiVC6-40" value="&lt;p style=&quot;border-color: var(--border-color); line-height: 50%;&quot;&gt;opcode&lt;/p&gt;&lt;p style=&quot;border-color: var(--border-color); line-height: 50%;&quot;&gt;funct3&lt;/p&gt;&lt;p style=&quot;border-color: var(--border-color); line-height: 50%;&quot;&gt;&lt;span style=&quot;background-color: initial;&quot;&gt;funct7&lt;/span&gt;&lt;/p&gt;&lt;p style=&quot;border-color: var(--border-color); line-height: 50%;&quot;&gt;&lt;span style=&quot;background-color: initial;&quot;&gt;&amp;nbsp;&lt;/span&gt;&lt;/p&gt;" style="text;html=1;strokeColor=none;fillColor=none;align=left;verticalAlign=middle;whiteSpace=wrap;rounded=0;movable=1;resizable=1;rotatable=1;deletable=1;editable=1;locked=0;connectable=1;spacingLeft=4;spacingBottom=0;spacing=2;horizontal=1;points=[[0,0,0,0,0],[0,0.25,0,0,0],[0,0.33,0,0,0],[0,0.5,0,0,0],[0,0.67,0,0,0],[0,0.75,0,0,0],[0,1,0,0,0],[0.25,0,0,0,0],[0.25,1,0,0,0],[0.5,0,0,0,0],[0.5,1,0,0,0],[0.75,0,0,0,0],[0.75,1,0,0,0],[1,0,0,0,0],[1,0.25,0,0,0],[1,0.5,0,0,0],[1,0.75,0,0,0],[1,1,0,0,0]];container=0;" parent="TK8NHG-VaEsM1Jr2HA9Q-2" vertex="1">
          <mxGeometry y="23" width="48" height="190" as="geometry" />
        </mxCell>
        <mxCell id="Yz_Gi2wW_Vq1L69UiVC6-164" style="edgeStyle=orthogonalEdgeStyle;rounded=0;orthogonalLoop=1;jettySize=auto;html=1;exitX=1;exitY=0.9;exitDx=0;exitDy=0;exitPerimeter=0;" parent="TK8NHG-VaEsM1Jr2HA9Q-2" source="Yz_Gi2wW_Vq1L69UiVC6-41" edge="1">
          <mxGeometry relative="1" as="geometry">
            <mxPoint x="120.28571428571422" y="193.96230158730157" as="targetPoint" />
          </mxGeometry>
        </mxCell>
        <mxCell id="Yz_Gi2wW_Vq1L69UiVC6-41" value="&lt;p style=&quot;border-color: var(--border-color); line-height: 50%;&quot;&gt;sext_op&lt;/p&gt;&lt;p style=&quot;border-color: var(--border-color); line-height: 50%;&quot;&gt;npc_op&lt;/p&gt;&lt;p style=&quot;border-color: var(--border-color); line-height: 50%;&quot;&gt;ram_we&lt;/p&gt;&lt;p style=&quot;border-color: var(--border-color); line-height: 50%;&quot;&gt;ram_r_op&lt;/p&gt;&lt;p style=&quot;border-color: var(--border-color); line-height: 50%;&quot;&gt;ram_w_op&lt;/p&gt;&lt;p style=&quot;border-color: var(--border-color); line-height: 50%;&quot;&gt;alu_op&lt;/p&gt;&lt;p style=&quot;border-color: var(--border-color); line-height: 50%;&quot;&gt;alu_asel&lt;/p&gt;&lt;p style=&quot;border-color: var(--border-color); line-height: 50%;&quot;&gt;alu_bsel&lt;/p&gt;&lt;p style=&quot;border-color: var(--border-color); line-height: 50%;&quot;&gt;rf_we&lt;/p&gt;&lt;p style=&quot;border-color: var(--border-color); line-height: 50%;&quot;&gt;rf_wsel&lt;/p&gt;" style="text;html=1;strokeColor=none;fillColor=none;align=right;verticalAlign=middle;whiteSpace=wrap;rounded=0;movable=1;resizable=1;rotatable=1;deletable=1;editable=1;locked=0;connectable=1;spacingRight=4;container=0;points=[[0,0,0,0,0],[0,0.25,0,0,0],[0,0.5,0,0,0],[0,0.75,0,0,0],[0,1,0,0,0],[0.25,0,0,0,0],[0.25,1,0,0,0],[0.5,0,0,0,0],[0.5,1,0,0,0],[0.75,0,0,0,0],[0.75,1,0,0,0],[1,0,0,0,0],[1,0.08,0,0,0],[1,0.17,0,0,0],[1,0.26,0,0,0],[1,0.37,0,0,0],[1,0.46,0,0,0],[1,0.55,0,0,0],[1,0.65,0,0,0],[1,0.74,0,0,0],[1,0.83,0,0,0],[1,0.93,0,0,0],[1,1,0,0,0]];" parent="TK8NHG-VaEsM1Jr2HA9Q-2" vertex="1">
          <mxGeometry x="72" y="23" width="48" height="190" as="geometry" />
        </mxCell>
        <mxCell id="7eX2QJKc9km2dqGkhQNE-55" style="edgeStyle=orthogonalEdgeStyle;rounded=0;orthogonalLoop=1;jettySize=auto;html=1;" edge="1" parent="1" source="TK8NHG-VaEsM1Jr2HA9Q-4">
          <mxGeometry relative="1" as="geometry">
            <mxPoint x="980" y="442" as="targetPoint" />
          </mxGeometry>
        </mxCell>
        <mxCell id="TK8NHG-VaEsM1Jr2HA9Q-4" value="" style="rounded=0;whiteSpace=wrap;html=1;rotation=90;" parent="1" vertex="1">
          <mxGeometry x="915" y="432.5" width="40" height="19.68" as="geometry" />
        </mxCell>
        <mxCell id="TK8NHG-VaEsM1Jr2HA9Q-9" value="1" style="text;html=1;strokeColor=none;fillColor=none;align=center;verticalAlign=middle;whiteSpace=wrap;rounded=0;" parent="1" vertex="1">
          <mxGeometry x="725" y="270" width="20" height="10" as="geometry" />
        </mxCell>
        <mxCell id="TK8NHG-VaEsM1Jr2HA9Q-14" value="2" style="text;html=1;strokeColor=none;fillColor=none;align=center;verticalAlign=middle;whiteSpace=wrap;rounded=0;" parent="1" vertex="1">
          <mxGeometry x="724.71" y="235" width="20" height="10" as="geometry" />
        </mxCell>
        <mxCell id="7eX2QJKc9km2dqGkhQNE-33" style="edgeStyle=orthogonalEdgeStyle;rounded=0;orthogonalLoop=1;jettySize=auto;html=1;exitX=0;exitY=1;exitDx=0;exitDy=0;entryX=0;entryY=0.26;entryDx=0;entryDy=0;entryPerimeter=0;" edge="1" parent="1" source="TK8NHG-VaEsM1Jr2HA9Q-15" target="7eX2QJKc9km2dqGkhQNE-28">
          <mxGeometry relative="1" as="geometry">
            <Array as="points">
              <mxPoint x="795" y="230" />
              <mxPoint x="795" y="255" />
            </Array>
          </mxGeometry>
        </mxCell>
        <mxCell id="TK8NHG-VaEsM1Jr2HA9Q-15" value="3" style="text;html=1;strokeColor=none;fillColor=none;align=center;verticalAlign=middle;whiteSpace=wrap;rounded=0;" parent="1" vertex="1">
          <mxGeometry x="724.71" y="220" width="20" height="10" as="geometry" />
        </mxCell>
        <mxCell id="TK8NHG-VaEsM1Jr2HA9Q-16" value="" style="edgeStyle=orthogonalEdgeStyle;rounded=0;orthogonalLoop=1;jettySize=auto;html=1;endArrow=none;endFill=0;exitDx=0;exitDy=0;exitPerimeter=0;" parent="1" source="TK8NHG-VaEsM1Jr2HA9Q-17" edge="1">
          <mxGeometry relative="1" as="geometry">
            <Array as="points">
              <mxPoint x="249.92000000000002" y="310" />
            </Array>
            <mxPoint x="271.8999999999999" y="380.9649999999999" as="sourcePoint" />
            <mxPoint x="249.92000000000002" y="310" as="targetPoint" />
          </mxGeometry>
        </mxCell>
        <mxCell id="TK8NHG-VaEsM1Jr2HA9Q-18" value="" style="edgeStyle=orthogonalEdgeStyle;rounded=0;orthogonalLoop=1;jettySize=auto;html=1;endArrow=none;endFill=0;" parent="1" target="Yz_Gi2wW_Vq1L69UiVC6-128" edge="1">
          <mxGeometry relative="1" as="geometry">
            <mxPoint x="540" y="230" as="targetPoint" />
            <mxPoint x="540" y="250" as="sourcePoint" />
            <Array as="points" />
          </mxGeometry>
        </mxCell>
        <mxCell id="Yz_Gi2wW_Vq1L69UiVC6-128" value="" style="shape=waypoint;sketch=0;fillStyle=solid;size=6;pointerEvents=1;points=[];fillColor=none;resizable=0;rotatable=0;perimeter=centerPerimeter;snapToPoint=1;" parent="1" vertex="1">
          <mxGeometry x="530" y="240" width="20" height="20" as="geometry" />
        </mxCell>
        <mxCell id="rJf01bI-I0imcSiUh86h-3" style="edgeStyle=orthogonalEdgeStyle;rounded=0;orthogonalLoop=1;jettySize=auto;html=1;exitX=1;exitY=0.5;exitDx=0;exitDy=0;entryX=0;entryY=0.5;entryDx=0;entryDy=0;" parent="1" source="7e6ycA0EHB4q4oPhDRhc-133" target="7e6ycA0EHB4q4oPhDRhc-149" edge="1">
          <mxGeometry relative="1" as="geometry" />
        </mxCell>
        <mxCell id="Yz_Gi2wW_Vq1L69UiVC6-192" value="" style="shape=waypoint;sketch=0;fillStyle=solid;size=6;pointerEvents=1;points=[];fillColor=none;resizable=0;rotatable=0;perimeter=centerPerimeter;snapToPoint=1;" parent="1" vertex="1">
          <mxGeometry x="239.92000000000002" y="370" width="20" height="20" as="geometry" />
        </mxCell>
        <mxCell id="rJf01bI-I0imcSiUh86h-6" value="" style="edgeStyle=orthogonalEdgeStyle;rounded=0;orthogonalLoop=1;jettySize=auto;html=1;endArrow=none;endFill=0;exitDx=0;exitDy=0;exitPerimeter=0;" parent="1" source="Yz_Gi2wW_Vq1L69UiVC6-192" target="TK8NHG-VaEsM1Jr2HA9Q-17" edge="1">
          <mxGeometry relative="1" as="geometry">
            <Array as="points" />
            <mxPoint x="249.92000000000002" y="380" as="sourcePoint" />
            <mxPoint x="249.92000000000002" y="310" as="targetPoint" />
          </mxGeometry>
        </mxCell>
        <mxCell id="7eX2QJKc9km2dqGkhQNE-20" style="edgeStyle=orthogonalEdgeStyle;rounded=0;orthogonalLoop=1;jettySize=auto;html=1;entryX=0;entryY=0.33;entryDx=0;entryDy=0;entryPerimeter=0;" edge="1" parent="1" source="TK8NHG-VaEsM1Jr2HA9Q-17" target="7eX2QJKc9km2dqGkhQNE-15">
          <mxGeometry relative="1" as="geometry" />
        </mxCell>
        <mxCell id="7eX2QJKc9km2dqGkhQNE-21" style="edgeStyle=orthogonalEdgeStyle;rounded=0;orthogonalLoop=1;jettySize=auto;html=1;entryX=0;entryY=0.15;entryDx=0;entryDy=0;entryPerimeter=0;" edge="1" parent="1" source="TK8NHG-VaEsM1Jr2HA9Q-17" target="7e6ycA0EHB4q4oPhDRhc-132">
          <mxGeometry relative="1" as="geometry">
            <Array as="points">
              <mxPoint x="15" y="292" />
              <mxPoint x="15" y="341" />
            </Array>
          </mxGeometry>
        </mxCell>
        <mxCell id="TK8NHG-VaEsM1Jr2HA9Q-17" value="" style="shape=waypoint;sketch=0;fillStyle=solid;size=6;pointerEvents=1;points=[];fillColor=none;resizable=0;rotatable=0;perimeter=centerPerimeter;snapToPoint=1;" parent="1" vertex="1">
          <mxGeometry x="239.92000000000002" y="282" width="20" height="20" as="geometry" />
        </mxCell>
        <mxCell id="7eX2QJKc9km2dqGkhQNE-180" style="edgeStyle=orthogonalEdgeStyle;rounded=0;orthogonalLoop=1;jettySize=auto;html=1;entryX=0;entryY=0.69;entryDx=0;entryDy=0;entryPerimeter=0;exitX=0.5;exitY=0;exitDx=0;exitDy=0;" edge="1" parent="1" source="7eX2QJKc9km2dqGkhQNE-2" target="7eX2QJKc9km2dqGkhQNE-28">
          <mxGeometry relative="1" as="geometry">
            <Array as="points">
              <mxPoint x="808" y="470" />
              <mxPoint x="808" y="479" />
            </Array>
          </mxGeometry>
        </mxCell>
        <mxCell id="7eX2QJKc9km2dqGkhQNE-2" value="" style="rounded=0;whiteSpace=wrap;html=1;rotation=90;" vertex="1" parent="1">
          <mxGeometry x="770" y="460" width="40" height="19.68" as="geometry" />
        </mxCell>
        <mxCell id="7eX2QJKc9km2dqGkhQNE-187" style="edgeStyle=orthogonalEdgeStyle;rounded=0;orthogonalLoop=1;jettySize=auto;html=1;entryX=0;entryY=0.74;entryDx=0;entryDy=0;entryPerimeter=0;" edge="1" parent="1" source="7eX2QJKc9km2dqGkhQNE-3" target="7eX2QJKc9km2dqGkhQNE-28">
          <mxGeometry relative="1" as="geometry" />
        </mxCell>
        <mxCell id="7eX2QJKc9km2dqGkhQNE-3" value="" style="rounded=0;whiteSpace=wrap;html=1;rotation=90;" vertex="1" parent="1">
          <mxGeometry x="725" y="495.36000000000024" width="40.4" height="19.64" as="geometry" />
        </mxCell>
        <mxCell id="7eX2QJKc9km2dqGkhQNE-14" value="" style="group" vertex="1" connectable="0" parent="1">
          <mxGeometry x="389.92" y="99.26" width="60" height="541.12" as="geometry" />
        </mxCell>
        <mxCell id="7eX2QJKc9km2dqGkhQNE-15" value="&lt;p style=&quot;line-height: 640%;&quot;&gt;pc&lt;/p&gt;&lt;p style=&quot;line-height: 640%;&quot;&gt;inst&lt;/p&gt;&lt;p style=&quot;line-height: 640%;&quot;&gt;pc4&lt;/p&gt;" style="rounded=0;whiteSpace=wrap;html=1;container=0;movable=1;resizable=1;rotatable=1;deletable=1;editable=1;locked=0;connectable=1;points=[[0,0,0,0,0],[0,0.25,0,0,0],[0,0.33,0,0,0],[0,0.5,0,0,0],[0,0.67,0,0,0],[0,0.75,0,0,0],[0,1,0,0,0],[0.25,0,0,0,0],[0.25,1,0,0,0],[0.5,0,0,0,0],[0.5,1,0,0,0],[0.75,0,0,0,0],[0.75,1,0,0,0],[1,0,0,0,0],[1,0.25,0,0,0],[1,0.33,0,0,0],[1,0.5,0,0,0],[1,0.67,0,0,0],[1,0.75,0,0,0],[1,1,0,0,0]];" vertex="1" parent="7eX2QJKc9km2dqGkhQNE-14">
          <mxGeometry y="20.74000000000001" width="60" height="520.38" as="geometry" />
        </mxCell>
        <mxCell id="7eX2QJKc9km2dqGkhQNE-16" value="&lt;font style=&quot;font-size: 20px;&quot;&gt;IF/ID&lt;/font&gt;" style="text;html=1;strokeColor=none;fillColor=none;align=center;verticalAlign=middle;whiteSpace=wrap;rounded=0;container=0;" vertex="1" parent="7eX2QJKc9km2dqGkhQNE-14">
          <mxGeometry width="60" height="20" as="geometry" />
        </mxCell>
        <mxCell id="7eX2QJKc9km2dqGkhQNE-173" value="" style="endArrow=none;html=1;rounded=0;exitX=1;exitY=1;exitDx=0;exitDy=0;entryX=0;entryY=1;entryDx=0;entryDy=0;movable=1;resizable=1;rotatable=1;deletable=1;editable=1;locked=0;connectable=1;" edge="1" parent="7eX2QJKc9km2dqGkhQNE-14">
          <mxGeometry width="50" height="50" relative="1" as="geometry">
            <mxPoint x="22" y="541.12" as="sourcePoint" />
            <mxPoint x="38" y="541.12" as="targetPoint" />
            <Array as="points">
              <mxPoint x="30" y="530.7456684491979" />
            </Array>
          </mxGeometry>
        </mxCell>
        <mxCell id="7eX2QJKc9km2dqGkhQNE-225" value="&lt;p style=&quot;line-height: 100%;&quot;&gt;s&lt;br&gt;t&lt;br&gt;o&lt;br&gt;p&lt;/p&gt;" style="text;html=1;strokeColor=none;fillColor=none;align=center;verticalAlign=middle;whiteSpace=wrap;rounded=0;" vertex="1" parent="7eX2QJKc9km2dqGkhQNE-14">
          <mxGeometry x="40.079999999999984" y="491.12" width="10.08" height="50" as="geometry" />
        </mxCell>
        <mxCell id="7eX2QJKc9km2dqGkhQNE-17" style="edgeStyle=orthogonalEdgeStyle;rounded=0;orthogonalLoop=1;jettySize=auto;html=1;entryX=0;entryY=0.5;entryDx=0;entryDy=0;entryPerimeter=0;" edge="1" parent="1" source="7e6ycA0EHB4q4oPhDRhc-139" target="7eX2QJKc9km2dqGkhQNE-15">
          <mxGeometry relative="1" as="geometry" />
        </mxCell>
        <mxCell id="7eX2QJKc9km2dqGkhQNE-23" style="edgeStyle=orthogonalEdgeStyle;rounded=0;orthogonalLoop=1;jettySize=auto;html=1;endArrow=none;endFill=0;" edge="1" parent="1" source="7eX2QJKc9km2dqGkhQNE-15" target="Yz_Gi2wW_Vq1L69UiVC6-132">
          <mxGeometry relative="1" as="geometry" />
        </mxCell>
        <mxCell id="7eX2QJKc9km2dqGkhQNE-27" value="" style="group" vertex="1" connectable="0" parent="1">
          <mxGeometry x="820" y="99.26" width="60" height="541.12" as="geometry" />
        </mxCell>
        <mxCell id="7eX2QJKc9km2dqGkhQNE-216" style="edgeStyle=orthogonalEdgeStyle;rounded=0;orthogonalLoop=1;jettySize=auto;html=1;exitX=1;exitY=0.1;exitDx=0;exitDy=0;exitPerimeter=0;" edge="1" parent="7eX2QJKc9km2dqGkhQNE-27" source="7eX2QJKc9km2dqGkhQNE-28">
          <mxGeometry relative="1" as="geometry">
            <mxPoint x="100" y="72.6374358974359" as="targetPoint" />
          </mxGeometry>
        </mxCell>
        <mxCell id="7eX2QJKc9km2dqGkhQNE-28" value="&lt;p style=&quot;line-height: 130%;&quot;&gt;opcode&lt;/p&gt;&lt;p style=&quot;line-height: 130%;&quot;&gt;npc_op&lt;/p&gt;&lt;p style=&quot;line-height: 130%;&quot;&gt;ram_we&lt;/p&gt;&lt;p style=&quot;line-height: 130%;&quot;&gt;ram_r_op&lt;/p&gt;&lt;p style=&quot;line-height: 130%;&quot;&gt;ram_w_op&lt;/p&gt;&lt;p style=&quot;border-color: var(--border-color); line-height: 15.6px;&quot;&gt;alu_op&lt;/p&gt;&lt;p style=&quot;border-color: var(--border-color); line-height: 15.6px;&quot;&gt;alu_asel&lt;/p&gt;&lt;p style=&quot;border-color: var(--border-color); line-height: 15.6px;&quot;&gt;alu_bsel&lt;/p&gt;&lt;p style=&quot;line-height: 130%;&quot;&gt;rf_we&lt;/p&gt;&lt;p style=&quot;line-height: 130%;&quot;&gt;rf_wsel&lt;/p&gt;&lt;p style=&quot;line-height: 130%;&quot;&gt;wR&lt;/p&gt;&lt;p style=&quot;line-height: 130%;&quot;&gt;rD1&lt;/p&gt;&lt;p style=&quot;line-height: 130%;&quot;&gt;rD2&lt;/p&gt;&lt;p style=&quot;border-color: var(--border-color); line-height: 15.6px;&quot;&gt;pc&lt;/p&gt;&lt;p style=&quot;border-color: var(--border-color); line-height: 15.6px;&quot;&gt;ext&lt;/p&gt;&lt;p style=&quot;border-color: var(--border-color); line-height: 15.6px;&quot;&gt;pc4&lt;/p&gt;" style="rounded=0;whiteSpace=wrap;html=1;container=0;movable=1;resizable=1;rotatable=1;deletable=1;editable=1;locked=0;connectable=1;points=[[0,0,0,0,0],[0,0.1,0,0,0],[0,0.16,0,0,0],[0,0.21,0,0,0],[0,0.26,0,0,0],[0,0.31,0,0,0],[0,0.37,0,0,0],[0,0.42,0,0,0],[0,0.47,0,0,0],[0,0.52,0,0,0],[0,0.58,0,0,0],[0,0.63,0,0,0],[0,0.69,0,0,0],[0,0.74,0,0,0],[0,0.79,0,0,0],[0,0.84,0,0,0],[0,0.9,0,0,0],[0,1,0,0,0],[0.25,0,0,0,0],[0.25,1,0,0,0],[0.5,0,0,0,0],[0.5,1,0,0,0],[0.75,0,0,0,0],[0.75,1,0,0,0],[1,0,0,0,0],[1,0.1,0,0,0],[1,0.16,0,0,0],[1,0.21,0,0,0],[1,0.26,0,0,0],[1,0.31,0,0,0],[1,0.37,0,0,0],[1,0.42,0,0,0],[1,0.47,0,0,0],[1,0.52,0,0,0],[1,0.58,0,0,0],[1,0.63,0,0,0],[1,0.69,0,0,0],[1,0.74,0,0,0],[1,0.79,0,0,0],[1,0.84,0,0,0],[1,0.9,0,0,0],[1,1,0,0,0]];" vertex="1" parent="7eX2QJKc9km2dqGkhQNE-27">
          <mxGeometry y="20.74000000000001" width="60" height="520.38" as="geometry" />
        </mxCell>
        <mxCell id="7eX2QJKc9km2dqGkhQNE-29" value="&lt;span style=&quot;font-size: 20px;&quot;&gt;ID/EX&lt;/span&gt;" style="text;html=1;strokeColor=none;fillColor=none;align=center;verticalAlign=middle;whiteSpace=wrap;rounded=0;container=0;" vertex="1" parent="7eX2QJKc9km2dqGkhQNE-27">
          <mxGeometry width="60" height="20" as="geometry" />
        </mxCell>
        <mxCell id="7eX2QJKc9km2dqGkhQNE-175" value="" style="endArrow=none;html=1;rounded=0;exitX=1;exitY=1;exitDx=0;exitDy=0;entryX=0;entryY=1;entryDx=0;entryDy=0;movable=1;resizable=1;rotatable=1;deletable=1;editable=1;locked=0;connectable=1;" edge="1" parent="7eX2QJKc9km2dqGkhQNE-27">
          <mxGeometry width="50" height="50" relative="1" as="geometry">
            <mxPoint x="22" y="541.12" as="sourcePoint" />
            <mxPoint x="38" y="541.12" as="targetPoint" />
            <Array as="points">
              <mxPoint x="30" y="530.7456684491979" />
            </Array>
          </mxGeometry>
        </mxCell>
        <mxCell id="7eX2QJKc9km2dqGkhQNE-226" value="&lt;p style=&quot;line-height: 100%;&quot;&gt;s&lt;br&gt;t&lt;br&gt;o&lt;br&gt;p&lt;/p&gt;" style="text;html=1;strokeColor=none;fillColor=none;align=center;verticalAlign=middle;whiteSpace=wrap;rounded=0;" vertex="1" parent="7eX2QJKc9km2dqGkhQNE-27">
          <mxGeometry x="40" y="491.12" width="10.08" height="50" as="geometry" />
        </mxCell>
        <mxCell id="7eX2QJKc9km2dqGkhQNE-30" style="edgeStyle=orthogonalEdgeStyle;rounded=0;orthogonalLoop=1;jettySize=auto;html=1;exitX=1;exitY=0.08;exitDx=0;exitDy=0;exitPerimeter=0;entryX=0;entryY=0.25;entryDx=0;entryDy=0;" edge="1" parent="1" source="Yz_Gi2wW_Vq1L69UiVC6-41" target="7e6ycA0EHB4q4oPhDRhc-105">
          <mxGeometry relative="1" as="geometry">
            <Array as="points">
              <mxPoint x="745" y="175" />
              <mxPoint x="745" y="130" />
              <mxPoint x="480" y="130" />
              <mxPoint x="480" y="540" />
            </Array>
          </mxGeometry>
        </mxCell>
        <mxCell id="7eX2QJKc9km2dqGkhQNE-31" style="edgeStyle=orthogonalEdgeStyle;rounded=0;orthogonalLoop=1;jettySize=auto;html=1;exitX=1;exitY=0.17;exitDx=0;exitDy=0;exitPerimeter=0;entryX=0;entryY=0.16;entryDx=0;entryDy=0;entryPerimeter=0;" edge="1" parent="1" source="Yz_Gi2wW_Vq1L69UiVC6-41" target="7eX2QJKc9km2dqGkhQNE-28">
          <mxGeometry relative="1" as="geometry">
            <Array as="points">
              <mxPoint x="805" y="192" />
              <mxPoint x="805" y="203" />
            </Array>
          </mxGeometry>
        </mxCell>
        <mxCell id="7eX2QJKc9km2dqGkhQNE-34" style="edgeStyle=orthogonalEdgeStyle;rounded=0;orthogonalLoop=1;jettySize=auto;html=1;exitX=1;exitY=0.46;exitDx=0;exitDy=0;exitPerimeter=0;entryX=0;entryY=0.31;entryDx=0;entryDy=0;entryPerimeter=0;" edge="1" parent="1" source="Yz_Gi2wW_Vq1L69UiVC6-41" target="7eX2QJKc9km2dqGkhQNE-28">
          <mxGeometry relative="1" as="geometry">
            <Array as="points">
              <mxPoint x="785" y="247" />
              <mxPoint x="785" y="281" />
            </Array>
          </mxGeometry>
        </mxCell>
        <mxCell id="7eX2QJKc9km2dqGkhQNE-36" style="edgeStyle=orthogonalEdgeStyle;rounded=0;orthogonalLoop=1;jettySize=auto;html=1;exitX=1;exitY=0.65;exitDx=0;exitDy=0;exitPerimeter=0;entryX=0;entryY=0.42;entryDx=0;entryDy=0;entryPerimeter=0;" edge="1" parent="1" source="Yz_Gi2wW_Vq1L69UiVC6-41" target="7eX2QJKc9km2dqGkhQNE-28">
          <mxGeometry relative="1" as="geometry">
            <Array as="points">
              <mxPoint x="765" y="284" />
              <mxPoint x="765" y="339" />
            </Array>
          </mxGeometry>
        </mxCell>
        <mxCell id="7eX2QJKc9km2dqGkhQNE-37" style="edgeStyle=orthogonalEdgeStyle;rounded=0;orthogonalLoop=1;jettySize=auto;html=1;exitX=1;exitY=0.74;exitDx=0;exitDy=0;exitPerimeter=0;entryX=0;entryY=0.47;entryDx=0;entryDy=0;entryPerimeter=0;" edge="1" parent="1" source="Yz_Gi2wW_Vq1L69UiVC6-41" target="7eX2QJKc9km2dqGkhQNE-28">
          <mxGeometry relative="1" as="geometry">
            <Array as="points">
              <mxPoint x="755" y="301" />
              <mxPoint x="755" y="365" />
            </Array>
          </mxGeometry>
        </mxCell>
        <mxCell id="7eX2QJKc9km2dqGkhQNE-39" style="edgeStyle=orthogonalEdgeStyle;rounded=0;orthogonalLoop=1;jettySize=auto;html=1;exitX=1;exitY=0.93;exitDx=0;exitDy=0;exitPerimeter=0;entryX=0;entryY=0.58;entryDx=0;entryDy=0;entryPerimeter=0;" edge="1" parent="1" source="Yz_Gi2wW_Vq1L69UiVC6-41" target="7eX2QJKc9km2dqGkhQNE-28">
          <mxGeometry relative="1" as="geometry">
            <Array as="points">
              <mxPoint x="735" y="337" />
              <mxPoint x="735" y="422" />
            </Array>
          </mxGeometry>
        </mxCell>
        <mxCell id="7eX2QJKc9km2dqGkhQNE-41" style="edgeStyle=orthogonalEdgeStyle;rounded=0;orthogonalLoop=1;jettySize=auto;html=1;entryX=0;entryY=0.1;entryDx=0;entryDy=0;entryPerimeter=0;" edge="1" parent="1" source="7eX2QJKc9km2dqGkhQNE-40" target="7eX2QJKc9km2dqGkhQNE-28">
          <mxGeometry relative="1" as="geometry">
            <Array as="points">
              <mxPoint x="540" y="105" />
              <mxPoint x="765" y="105" />
              <mxPoint x="765" y="172" />
            </Array>
          </mxGeometry>
        </mxCell>
        <mxCell id="7eX2QJKc9km2dqGkhQNE-40" value="" style="shape=waypoint;sketch=0;fillStyle=solid;size=6;pointerEvents=1;points=[];fillColor=none;resizable=0;rotatable=0;perimeter=centerPerimeter;snapToPoint=1;" vertex="1" parent="1">
          <mxGeometry x="530" y="220" width="20" height="20" as="geometry" />
        </mxCell>
        <mxCell id="rJf01bI-I0imcSiUh86h-51" style="edgeStyle=orthogonalEdgeStyle;rounded=0;orthogonalLoop=1;jettySize=auto;html=1;exitX=1;exitY=0.25;exitDx=0;exitDy=0;entryX=0.25;entryY=1;entryDx=0;entryDy=0;" parent="1" source="7e6ycA0EHB4q4oPhDRhc-158" edge="1" target="7eX2QJKc9km2dqGkhQNE-2">
          <mxGeometry relative="1" as="geometry">
            <mxPoint x="750" y="447.5769230769231" as="targetPoint" />
            <Array as="points">
              <mxPoint x="765" y="448" />
              <mxPoint x="765" y="460" />
            </Array>
          </mxGeometry>
        </mxCell>
        <mxCell id="7eX2QJKc9km2dqGkhQNE-47" style="edgeStyle=orthogonalEdgeStyle;rounded=0;orthogonalLoop=1;jettySize=auto;html=1;exitX=1;exitY=0.67;exitDx=0;exitDy=0;exitPerimeter=0;entryX=0;entryY=0.9;entryDx=0;entryDy=0;entryPerimeter=0;" edge="1" parent="1" source="7eX2QJKc9km2dqGkhQNE-15" target="7eX2QJKc9km2dqGkhQNE-28">
          <mxGeometry relative="1" as="geometry">
            <Array as="points">
              <mxPoint x="585" y="469" />
              <mxPoint x="585" y="588" />
            </Array>
          </mxGeometry>
        </mxCell>
        <mxCell id="7eX2QJKc9km2dqGkhQNE-52" value="" style="group" vertex="1" connectable="0" parent="1">
          <mxGeometry x="1090" y="100" width="60" height="541.12" as="geometry" />
        </mxCell>
        <mxCell id="7eX2QJKc9km2dqGkhQNE-53" value="&lt;p style=&quot;line-height: 270%;&quot;&gt;npc_op&lt;br&gt;ram_we&lt;br&gt;ram_r_op&lt;br&gt;ram_w_op&lt;br&gt;rf_we&lt;br&gt;rf_wsel&lt;br&gt;c&lt;br&gt;comp&lt;br&gt;wR&lt;br style=&quot;border-color: var(--border-color);&quot;&gt;rD2&lt;br style=&quot;border-color: var(--border-color);&quot;&gt;pc&lt;br&gt;ext&lt;br&gt;pc4&lt;br&gt;&lt;/p&gt;" style="rounded=0;whiteSpace=wrap;html=1;container=0;movable=1;resizable=1;rotatable=1;deletable=1;editable=1;locked=0;connectable=1;points=[[0,0,0,0,0],[0,0.12,0,0,0],[0,0.19,0,0,0],[0,0.25,0,0,0],[0,0.31,0,0,0],[0,0.37,0,0,0],[0,0.44,0,0,0],[0,0.5,0,0,0],[0,0.56,0,0,0],[0,0.62,0,0,0],[0,0.69,0,0,0],[0,0.75,0,0,0],[0,0.81,0,0,0],[0,0.87,0,0,0],[0,1,0,0,0],[0.25,0,0,0,0],[0.25,1,0,0,0],[0.5,0,0,0,0],[0.5,1,0,0,0],[0.75,0,0,0,0],[0.75,1,0,0,0],[1,0,0,0,0],[1,0.12,0,0,0],[1,0.19,0,0,0],[1,0.25,0,0,0],[1,0.31,0,0,0],[1,0.37,0,0,0],[1,0.44,0,0,0],[1,0.5,0,0,0],[1,0.56,0,0,0],[1,0.62,0,0,0],[1,0.69,0,0,0],[1,0.75,0,0,0],[1,0.81,0,0,0],[1,0.87,0,0,0],[1,1,0,0,0]];" vertex="1" parent="7eX2QJKc9km2dqGkhQNE-52">
          <mxGeometry y="20.74000000000001" width="60" height="520.38" as="geometry" />
        </mxCell>
        <mxCell id="7eX2QJKc9km2dqGkhQNE-54" value="&lt;span style=&quot;font-size: 20px;&quot;&gt;EX/MEM&lt;/span&gt;" style="text;html=1;strokeColor=none;fillColor=none;align=center;verticalAlign=middle;whiteSpace=wrap;rounded=0;container=0;" vertex="1" parent="7eX2QJKc9km2dqGkhQNE-52">
          <mxGeometry width="60" height="20" as="geometry" />
        </mxCell>
        <mxCell id="7eX2QJKc9km2dqGkhQNE-176" value="" style="endArrow=none;html=1;rounded=0;exitX=1;exitY=1;exitDx=0;exitDy=0;entryX=0;entryY=1;entryDx=0;entryDy=0;movable=1;resizable=1;rotatable=1;deletable=1;editable=1;locked=0;connectable=1;" edge="1" parent="7eX2QJKc9km2dqGkhQNE-52">
          <mxGeometry width="50" height="50" relative="1" as="geometry">
            <mxPoint x="22" y="541.12" as="sourcePoint" />
            <mxPoint x="38" y="541.12" as="targetPoint" />
            <Array as="points">
              <mxPoint x="30" y="530.7456684491979" />
            </Array>
          </mxGeometry>
        </mxCell>
        <mxCell id="7eX2QJKc9km2dqGkhQNE-227" value="&lt;p style=&quot;line-height: 100%;&quot;&gt;s&lt;br&gt;t&lt;br&gt;o&lt;br&gt;p&lt;/p&gt;" style="text;html=1;strokeColor=none;fillColor=none;align=center;verticalAlign=middle;whiteSpace=wrap;rounded=0;" vertex="1" parent="7eX2QJKc9km2dqGkhQNE-52">
          <mxGeometry x="40" y="491.12" width="10.08" height="50" as="geometry" />
        </mxCell>
        <mxCell id="7eX2QJKc9km2dqGkhQNE-57" style="edgeStyle=orthogonalEdgeStyle;rounded=0;orthogonalLoop=1;jettySize=auto;html=1;exitX=1;exitY=0.16;exitDx=0;exitDy=0;exitPerimeter=0;" edge="1" parent="1" source="7eX2QJKc9km2dqGkhQNE-28">
          <mxGeometry relative="1" as="geometry">
            <mxPoint x="1090" y="190" as="targetPoint" />
            <Array as="points">
              <mxPoint x="1075" y="203" />
              <mxPoint x="1075" y="190" />
              <mxPoint x="1090" y="190" />
            </Array>
          </mxGeometry>
        </mxCell>
        <mxCell id="7eX2QJKc9km2dqGkhQNE-58" style="edgeStyle=orthogonalEdgeStyle;rounded=0;orthogonalLoop=1;jettySize=auto;html=1;exitX=1;exitY=0.21;exitDx=0;exitDy=0;exitPerimeter=0;entryX=0;entryY=0.19;entryDx=0;entryDy=0;entryPerimeter=0;" edge="1" parent="1" source="7eX2QJKc9km2dqGkhQNE-28" target="7eX2QJKc9km2dqGkhQNE-53">
          <mxGeometry relative="1" as="geometry">
            <Array as="points">
              <mxPoint x="1075" y="229" />
              <mxPoint x="1075" y="220" />
            </Array>
          </mxGeometry>
        </mxCell>
        <mxCell id="7eX2QJKc9km2dqGkhQNE-59" style="edgeStyle=orthogonalEdgeStyle;rounded=0;orthogonalLoop=1;jettySize=auto;html=1;exitX=1;exitY=0.26;exitDx=0;exitDy=0;exitPerimeter=0;" edge="1" parent="1" source="7eX2QJKc9km2dqGkhQNE-28">
          <mxGeometry relative="1" as="geometry">
            <mxPoint x="1090" y="255" as="targetPoint" />
            <Array as="points">
              <mxPoint x="1075" y="255" />
              <mxPoint x="1090" y="255" />
            </Array>
          </mxGeometry>
        </mxCell>
        <mxCell id="7eX2QJKc9km2dqGkhQNE-60" style="edgeStyle=orthogonalEdgeStyle;rounded=0;orthogonalLoop=1;jettySize=auto;html=1;exitX=1;exitY=0.31;exitDx=0;exitDy=0;exitPerimeter=0;entryX=0;entryY=0.31;entryDx=0;entryDy=0;entryPerimeter=0;" edge="1" parent="1" source="7eX2QJKc9km2dqGkhQNE-28" target="7eX2QJKc9km2dqGkhQNE-53">
          <mxGeometry relative="1" as="geometry" />
        </mxCell>
        <mxCell id="7eX2QJKc9km2dqGkhQNE-61" style="edgeStyle=orthogonalEdgeStyle;rounded=0;orthogonalLoop=1;jettySize=auto;html=1;exitX=1;exitY=0.37;exitDx=0;exitDy=0;exitPerimeter=0;entryX=0.5;entryY=0;entryDx=0;entryDy=0;" edge="1" parent="1" source="7eX2QJKc9km2dqGkhQNE-28" target="Yz_Gi2wW_Vq1L69UiVC6-56">
          <mxGeometry relative="1" as="geometry" />
        </mxCell>
        <mxCell id="7eX2QJKc9km2dqGkhQNE-62" style="edgeStyle=orthogonalEdgeStyle;rounded=0;orthogonalLoop=1;jettySize=auto;html=1;exitX=1;exitY=0.42;exitDx=0;exitDy=0;exitPerimeter=0;entryX=0;entryY=0.5;entryDx=0;entryDy=0;" edge="1" parent="1" source="7eX2QJKc9km2dqGkhQNE-28" target="TK8NHG-VaEsM1Jr2HA9Q-4">
          <mxGeometry relative="1" as="geometry" />
        </mxCell>
        <mxCell id="7eX2QJKc9km2dqGkhQNE-63" style="edgeStyle=orthogonalEdgeStyle;rounded=0;orthogonalLoop=1;jettySize=auto;html=1;exitX=1;exitY=0.47;exitDx=0;exitDy=0;exitPerimeter=0;entryX=0;entryY=0.5;entryDx=0;entryDy=0;" edge="1" parent="1" source="7eX2QJKc9km2dqGkhQNE-28" target="Yz_Gi2wW_Vq1L69UiVC6-154">
          <mxGeometry relative="1" as="geometry" />
        </mxCell>
        <mxCell id="7eX2QJKc9km2dqGkhQNE-64" style="edgeStyle=orthogonalEdgeStyle;rounded=0;orthogonalLoop=1;jettySize=auto;html=1;exitX=1;exitY=0.52;exitDx=0;exitDy=0;exitPerimeter=0;entryX=0;entryY=0.37;entryDx=0;entryDy=0;entryPerimeter=0;" edge="1" parent="1" source="7eX2QJKc9km2dqGkhQNE-28" target="7eX2QJKc9km2dqGkhQNE-53">
          <mxGeometry relative="1" as="geometry">
            <Array as="points">
              <mxPoint x="915" y="391" />
              <mxPoint x="915" y="325" />
              <mxPoint x="1075" y="325" />
              <mxPoint x="1075" y="313" />
            </Array>
          </mxGeometry>
        </mxCell>
        <mxCell id="7eX2QJKc9km2dqGkhQNE-65" style="edgeStyle=orthogonalEdgeStyle;rounded=0;orthogonalLoop=1;jettySize=auto;html=1;exitX=1;exitY=0.58;exitDx=0;exitDy=0;exitPerimeter=0;entryX=0;entryY=0.44;entryDx=0;entryDy=0;entryPerimeter=0;" edge="1" parent="1" source="7eX2QJKc9km2dqGkhQNE-28" target="7eX2QJKc9km2dqGkhQNE-53">
          <mxGeometry relative="1" as="geometry">
            <Array as="points">
              <mxPoint x="895" y="422" />
              <mxPoint x="895" y="350" />
              <mxPoint x="1080" y="350" />
            </Array>
          </mxGeometry>
        </mxCell>
        <mxCell id="7eX2QJKc9km2dqGkhQNE-66" style="edgeStyle=orthogonalEdgeStyle;rounded=0;orthogonalLoop=1;jettySize=auto;html=1;exitX=1;exitY=0.25;exitDx=0;exitDy=0;entryX=0;entryY=0.5;entryDx=0;entryDy=0;entryPerimeter=0;" edge="1" parent="1" source="Yz_Gi2wW_Vq1L69UiVC6-57" target="7eX2QJKc9km2dqGkhQNE-53">
          <mxGeometry relative="1" as="geometry">
            <Array as="points">
              <mxPoint x="1040" y="460" />
              <mxPoint x="1040" y="381" />
            </Array>
          </mxGeometry>
        </mxCell>
        <mxCell id="7eX2QJKc9km2dqGkhQNE-67" style="edgeStyle=orthogonalEdgeStyle;rounded=0;orthogonalLoop=1;jettySize=auto;html=1;exitX=1;exitY=0.75;exitDx=0;exitDy=0;entryX=0;entryY=0.56;entryDx=0;entryDy=0;entryPerimeter=0;" edge="1" parent="1" source="Yz_Gi2wW_Vq1L69UiVC6-57" target="7eX2QJKc9km2dqGkhQNE-53">
          <mxGeometry relative="1" as="geometry">
            <Array as="points">
              <mxPoint x="1050" y="482" />
              <mxPoint x="1050" y="412" />
            </Array>
          </mxGeometry>
        </mxCell>
        <mxCell id="7eX2QJKc9km2dqGkhQNE-68" style="edgeStyle=orthogonalEdgeStyle;rounded=0;orthogonalLoop=1;jettySize=auto;html=1;exitX=1;exitY=0.63;exitDx=0;exitDy=0;exitPerimeter=0;entryX=0;entryY=0.62;entryDx=0;entryDy=0;entryPerimeter=0;" edge="1" parent="1" source="7eX2QJKc9km2dqGkhQNE-28" target="7eX2QJKc9km2dqGkhQNE-53">
          <mxGeometry relative="1" as="geometry">
            <Array as="points">
              <mxPoint x="910" y="448" />
              <mxPoint x="910" y="540" />
              <mxPoint x="1060" y="540" />
              <mxPoint x="1060" y="443" />
            </Array>
          </mxGeometry>
        </mxCell>
        <mxCell id="7eX2QJKc9km2dqGkhQNE-76" style="edgeStyle=orthogonalEdgeStyle;rounded=0;orthogonalLoop=1;jettySize=auto;html=1;exitX=1;exitY=0.9;exitDx=0;exitDy=0;exitPerimeter=0;entryX=0;entryY=0.87;entryDx=0;entryDy=0;entryPerimeter=0;" edge="1" parent="1" source="7eX2QJKc9km2dqGkhQNE-28" target="7eX2QJKc9km2dqGkhQNE-53">
          <mxGeometry relative="1" as="geometry">
            <Array as="points">
              <mxPoint x="1075" y="588" />
              <mxPoint x="1075" y="574" />
            </Array>
          </mxGeometry>
        </mxCell>
        <mxCell id="7eX2QJKc9km2dqGkhQNE-77" style="edgeStyle=orthogonalEdgeStyle;rounded=0;orthogonalLoop=1;jettySize=auto;html=1;exitX=1;exitY=0.69;exitDx=0;exitDy=0;exitPerimeter=0;entryX=0.25;entryY=1;entryDx=0;entryDy=0;" edge="1" parent="1" source="7eX2QJKc9km2dqGkhQNE-28" target="TK8NHG-VaEsM1Jr2HA9Q-4">
          <mxGeometry relative="1" as="geometry">
            <Array as="points">
              <mxPoint x="890" y="479" />
              <mxPoint x="890" y="432" />
            </Array>
          </mxGeometry>
        </mxCell>
        <mxCell id="7eX2QJKc9km2dqGkhQNE-89" style="edgeStyle=orthogonalEdgeStyle;rounded=0;orthogonalLoop=1;jettySize=auto;html=1;entryX=0;entryY=0.81;entryDx=0;entryDy=0;entryPerimeter=0;" edge="1" parent="1" source="7eX2QJKc9km2dqGkhQNE-82" target="7eX2QJKc9km2dqGkhQNE-53">
          <mxGeometry relative="1" as="geometry">
            <Array as="points">
              <mxPoint x="1075" y="557" />
              <mxPoint x="1075" y="542" />
            </Array>
          </mxGeometry>
        </mxCell>
        <mxCell id="7eX2QJKc9km2dqGkhQNE-86" value="" style="edgeStyle=orthogonalEdgeStyle;rounded=0;orthogonalLoop=1;jettySize=auto;html=1;exitX=1;exitY=0.74;exitDx=0;exitDy=0;exitPerimeter=0;entryDx=0;entryDy=0;endArrow=none;endFill=0;" edge="1" parent="1" source="7eX2QJKc9km2dqGkhQNE-28" target="7eX2QJKc9km2dqGkhQNE-85">
          <mxGeometry relative="1" as="geometry">
            <mxPoint x="880" y="505" as="sourcePoint" />
            <mxPoint x="935" y="495" as="targetPoint" />
            <Array as="points" />
          </mxGeometry>
        </mxCell>
        <mxCell id="7eX2QJKc9km2dqGkhQNE-88" style="edgeStyle=orthogonalEdgeStyle;rounded=0;orthogonalLoop=1;jettySize=auto;html=1;entryX=0;entryY=0.69;entryDx=0;entryDy=0;entryPerimeter=0;" edge="1" parent="1" source="7eX2QJKc9km2dqGkhQNE-85" target="7eX2QJKc9km2dqGkhQNE-53">
          <mxGeometry relative="1" as="geometry">
            <Array as="points">
              <mxPoint x="920" y="550" />
              <mxPoint x="1070" y="550" />
              <mxPoint x="1070" y="480" />
            </Array>
          </mxGeometry>
        </mxCell>
        <mxCell id="7eX2QJKc9km2dqGkhQNE-172" style="edgeStyle=orthogonalEdgeStyle;rounded=0;orthogonalLoop=1;jettySize=auto;html=1;entryX=0.273;entryY=0.973;entryDx=0;entryDy=0;entryPerimeter=0;" edge="1" parent="1" source="7eX2QJKc9km2dqGkhQNE-85" target="Yz_Gi2wW_Vq1L69UiVC6-154">
          <mxGeometry relative="1" as="geometry">
            <Array as="points">
              <mxPoint x="920" y="494" />
            </Array>
          </mxGeometry>
        </mxCell>
        <mxCell id="7eX2QJKc9km2dqGkhQNE-85" value="" style="shape=waypoint;sketch=0;fillStyle=solid;size=6;pointerEvents=1;points=[];fillColor=none;resizable=0;rotatable=0;perimeter=centerPerimeter;snapToPoint=1;" vertex="1" parent="1">
          <mxGeometry x="910" y="495" width="20" height="20" as="geometry" />
        </mxCell>
        <mxCell id="7eX2QJKc9km2dqGkhQNE-93" value="" style="group" vertex="1" connectable="0" parent="1">
          <mxGeometry x="1340" y="100" width="60" height="541.12" as="geometry" />
        </mxCell>
        <mxCell id="7eX2QJKc9km2dqGkhQNE-94" value="&lt;br style=&quot;border-color: var(--border-color);&quot;&gt;wR&lt;p style=&quot;line-height: 400%;&quot;&gt;rf_we&lt;br&gt;rf_wsel&lt;br&gt;c&lt;br style=&quot;border-color: var(--border-color);&quot;&gt;rdo&lt;br&gt;ext&lt;br&gt;pc4&lt;/p&gt;" style="rounded=0;whiteSpace=wrap;html=1;container=0;movable=1;resizable=1;rotatable=1;deletable=1;editable=1;locked=0;connectable=1;points=[[0,0,0,0,0],[0,0.22,0,0,0],[0,0.31,0,0,0],[0,0.41,0,0,0],[0,0.5,0,0,0],[0,0.59,0,0,0],[0,0.69,0,0,0],[0,0.78,0,0,0],[0,1,0,0,0],[0.25,0,0,0,0],[0.25,1,0,0,0],[0.5,0,0,0,0],[0.5,1,0,0,0],[0.75,0,0,0,0],[0.75,1,0,0,0],[1,0,0,0,0],[1,0.22,0,0,0],[1,0.31,0,0,0],[1,0.41,0,0,0],[1,0.5,0,0,0],[1,0.59,0,0,0],[1,0.69,0,0,0],[1,0.78,0,0,0],[1,1,0,0,0]];" vertex="1" parent="7eX2QJKc9km2dqGkhQNE-93">
          <mxGeometry y="20.74000000000001" width="60" height="520.38" as="geometry" />
        </mxCell>
        <mxCell id="7eX2QJKc9km2dqGkhQNE-95" value="&lt;font style=&quot;font-size: 20px;&quot;&gt;MEM/WB&lt;/font&gt;" style="text;html=1;strokeColor=none;fillColor=none;align=center;verticalAlign=middle;whiteSpace=wrap;rounded=0;container=0;" vertex="1" parent="7eX2QJKc9km2dqGkhQNE-93">
          <mxGeometry width="60" height="20" as="geometry" />
        </mxCell>
        <mxCell id="7eX2QJKc9km2dqGkhQNE-177" value="" style="endArrow=none;html=1;rounded=0;exitX=1;exitY=1;exitDx=0;exitDy=0;entryX=0;entryY=1;entryDx=0;entryDy=0;movable=1;resizable=1;rotatable=1;deletable=1;editable=1;locked=0;connectable=1;" edge="1" parent="7eX2QJKc9km2dqGkhQNE-93">
          <mxGeometry width="50" height="50" relative="1" as="geometry">
            <mxPoint x="22" y="541.12" as="sourcePoint" />
            <mxPoint x="38" y="541.12" as="targetPoint" />
            <Array as="points">
              <mxPoint x="30" y="530.7456684491979" />
            </Array>
          </mxGeometry>
        </mxCell>
        <mxCell id="7eX2QJKc9km2dqGkhQNE-224" value="&lt;p style=&quot;line-height: 100%;&quot;&gt;s&lt;br&gt;t&lt;br&gt;o&lt;br&gt;p&lt;/p&gt;" style="text;html=1;strokeColor=none;fillColor=none;align=center;verticalAlign=middle;whiteSpace=wrap;rounded=0;" vertex="1" parent="7eX2QJKc9km2dqGkhQNE-93">
          <mxGeometry x="40" y="491.12" width="10.08" height="50" as="geometry" />
        </mxCell>
        <mxCell id="7eX2QJKc9km2dqGkhQNE-100" style="edgeStyle=orthogonalEdgeStyle;rounded=0;orthogonalLoop=1;jettySize=auto;html=1;exitX=1;exitY=0.69;exitDx=0;exitDy=0;exitPerimeter=0;entryX=0;entryY=0.91;entryDx=0;entryDy=0;entryPerimeter=0;" edge="1" parent="1" source="7eX2QJKc9km2dqGkhQNE-53" target="Yz_Gi2wW_Vq1L69UiVC6-77">
          <mxGeometry relative="1" as="geometry">
            <Array as="points">
              <mxPoint x="1205" y="480" />
              <mxPoint x="1205" y="466" />
              <mxPoint x="1225" y="466" />
            </Array>
          </mxGeometry>
        </mxCell>
        <mxCell id="7eX2QJKc9km2dqGkhQNE-101" style="edgeStyle=orthogonalEdgeStyle;rounded=0;orthogonalLoop=1;jettySize=auto;html=1;entryX=0;entryY=0.59;entryDx=0;entryDy=0;entryPerimeter=0;" edge="1" parent="1" source="Yz_Gi2wW_Vq1L69UiVC6-78" target="7eX2QJKc9km2dqGkhQNE-94">
          <mxGeometry relative="1" as="geometry" />
        </mxCell>
        <mxCell id="7eX2QJKc9km2dqGkhQNE-102" style="edgeStyle=orthogonalEdgeStyle;rounded=0;orthogonalLoop=1;jettySize=auto;html=1;exitX=1;exitY=0.19;exitDx=0;exitDy=0;exitPerimeter=0;entryX=0;entryY=0.1;entryDx=0;entryDy=0;entryPerimeter=0;" edge="1" parent="1" source="7eX2QJKc9km2dqGkhQNE-53" target="Yz_Gi2wW_Vq1L69UiVC6-77">
          <mxGeometry relative="1" as="geometry">
            <Array as="points">
              <mxPoint x="1210" y="220" />
              <mxPoint x="1210" y="389" />
            </Array>
          </mxGeometry>
        </mxCell>
        <mxCell id="7eX2QJKc9km2dqGkhQNE-103" style="edgeStyle=orthogonalEdgeStyle;rounded=0;orthogonalLoop=1;jettySize=auto;html=1;exitX=1;exitY=0.25;exitDx=0;exitDy=0;exitPerimeter=0;entryX=0;entryY=0.31;entryDx=0;entryDy=0;entryPerimeter=0;" edge="1" parent="1" source="7eX2QJKc9km2dqGkhQNE-53" target="Yz_Gi2wW_Vq1L69UiVC6-77">
          <mxGeometry relative="1" as="geometry">
            <Array as="points">
              <mxPoint x="1200" y="251" />
              <mxPoint x="1200" y="409" />
            </Array>
          </mxGeometry>
        </mxCell>
        <mxCell id="7eX2QJKc9km2dqGkhQNE-104" style="edgeStyle=orthogonalEdgeStyle;rounded=0;orthogonalLoop=1;jettySize=auto;html=1;exitX=1;exitY=0.31;exitDx=0;exitDy=0;exitPerimeter=0;entryX=0;entryY=0.53;entryDx=0;entryDy=0;entryPerimeter=0;" edge="1" parent="1" source="7eX2QJKc9km2dqGkhQNE-53" target="Yz_Gi2wW_Vq1L69UiVC6-77">
          <mxGeometry relative="1" as="geometry">
            <Array as="points">
              <mxPoint x="1190" y="282" />
              <mxPoint x="1190" y="430" />
            </Array>
          </mxGeometry>
        </mxCell>
        <mxCell id="7eX2QJKc9km2dqGkhQNE-105" style="edgeStyle=orthogonalEdgeStyle;rounded=0;orthogonalLoop=1;jettySize=auto;html=1;entryX=0;entryY=0.72;entryDx=0;entryDy=0;entryPerimeter=0;" edge="1" parent="1" source="7eX2QJKc9km2dqGkhQNE-130" target="Yz_Gi2wW_Vq1L69UiVC6-77">
          <mxGeometry relative="1" as="geometry">
            <Array as="points">
              <mxPoint x="1180" y="381" />
              <mxPoint x="1180" y="448" />
            </Array>
          </mxGeometry>
        </mxCell>
        <mxCell id="7eX2QJKc9km2dqGkhQNE-106" style="edgeStyle=orthogonalEdgeStyle;rounded=0;orthogonalLoop=1;jettySize=auto;html=1;exitDx=0;exitDy=0;exitPerimeter=0;entryX=0;entryY=0.69;entryDx=0;entryDy=0;entryPerimeter=0;" edge="1" parent="1" source="7eX2QJKc9km2dqGkhQNE-134" target="7eX2QJKc9km2dqGkhQNE-94">
          <mxGeometry relative="1" as="geometry">
            <Array as="points">
              <mxPoint x="1315" y="542" />
              <mxPoint x="1315" y="480" />
            </Array>
          </mxGeometry>
        </mxCell>
        <mxCell id="7eX2QJKc9km2dqGkhQNE-107" style="edgeStyle=orthogonalEdgeStyle;rounded=0;orthogonalLoop=1;jettySize=auto;html=1;exitX=1;exitY=0.87;exitDx=0;exitDy=0;exitPerimeter=0;entryX=0;entryY=0.78;entryDx=0;entryDy=0;entryPerimeter=0;" edge="1" parent="1" source="7eX2QJKc9km2dqGkhQNE-53" target="7eX2QJKc9km2dqGkhQNE-94">
          <mxGeometry relative="1" as="geometry">
            <Array as="points">
              <mxPoint x="1325" y="573" />
              <mxPoint x="1325" y="527" />
            </Array>
          </mxGeometry>
        </mxCell>
        <mxCell id="7eX2QJKc9km2dqGkhQNE-108" style="edgeStyle=orthogonalEdgeStyle;rounded=0;orthogonalLoop=1;jettySize=auto;html=1;exitX=1;exitY=0.37;exitDx=0;exitDy=0;exitPerimeter=0;entryX=0;entryY=0.31;entryDx=0;entryDy=0;entryPerimeter=0;" edge="1" parent="1" source="7eX2QJKc9km2dqGkhQNE-53" target="7eX2QJKc9km2dqGkhQNE-94">
          <mxGeometry relative="1" as="geometry">
            <Array as="points">
              <mxPoint x="1325" y="313" />
              <mxPoint x="1325" y="282" />
            </Array>
          </mxGeometry>
        </mxCell>
        <mxCell id="7eX2QJKc9km2dqGkhQNE-109" style="edgeStyle=orthogonalEdgeStyle;rounded=0;orthogonalLoop=1;jettySize=auto;html=1;exitX=1;exitY=0.44;exitDx=0;exitDy=0;exitPerimeter=0;entryX=0;entryY=0.41;entryDx=0;entryDy=0;entryPerimeter=0;" edge="1" parent="1" target="7eX2QJKc9km2dqGkhQNE-94">
          <mxGeometry relative="1" as="geometry">
            <mxPoint x="1144.9999999999998" y="349.64720000000005" as="sourcePoint" />
            <mxPoint x="1355" y="281.99780000000004" as="targetPoint" />
            <Array as="points">
              <mxPoint x="1310" y="350" />
              <mxPoint x="1310" y="335" />
              <mxPoint x="1340" y="335" />
            </Array>
          </mxGeometry>
        </mxCell>
        <mxCell id="7eX2QJKc9km2dqGkhQNE-110" style="edgeStyle=orthogonalEdgeStyle;rounded=0;orthogonalLoop=1;jettySize=auto;html=1;exitX=1;exitY=0.12;exitDx=0;exitDy=0;exitPerimeter=0;entryX=0;entryY=0.25;entryDx=0;entryDy=0;entryPerimeter=0;" edge="1" parent="1" source="7eX2QJKc9km2dqGkhQNE-53" target="7e6ycA0EHB4q4oPhDRhc-132">
          <mxGeometry relative="1" as="geometry">
            <Array as="points">
              <mxPoint x="1170" y="183" />
              <mxPoint x="1170" y="80" />
              <mxPoint y="80" />
              <mxPoint y="352" />
              <mxPoint x="5" y="352" />
            </Array>
          </mxGeometry>
        </mxCell>
        <mxCell id="7eX2QJKc9km2dqGkhQNE-117" style="edgeStyle=orthogonalEdgeStyle;rounded=0;orthogonalLoop=1;jettySize=auto;html=1;entryX=0;entryY=0.5;entryDx=0;entryDy=0;entryPerimeter=0;" edge="1" parent="1" source="7eX2QJKc9km2dqGkhQNE-113" target="7eX2QJKc9km2dqGkhQNE-94">
          <mxGeometry relative="1" as="geometry">
            <Array as="points">
              <mxPoint x="1180" y="339" />
              <mxPoint x="1325" y="339" />
              <mxPoint x="1325" y="381" />
            </Array>
          </mxGeometry>
        </mxCell>
        <mxCell id="7eX2QJKc9km2dqGkhQNE-113" value="" style="shape=waypoint;sketch=0;fillStyle=solid;size=6;pointerEvents=1;points=[];fillColor=none;resizable=0;rotatable=0;perimeter=centerPerimeter;snapToPoint=1;" vertex="1" parent="1">
          <mxGeometry x="1170" y="370.92999999999995" width="20" height="20" as="geometry" />
        </mxCell>
        <mxCell id="7eX2QJKc9km2dqGkhQNE-115" style="edgeStyle=orthogonalEdgeStyle;rounded=0;orthogonalLoop=1;jettySize=auto;html=1;endArrow=none;endFill=0;" edge="1" parent="1" source="7eX2QJKc9km2dqGkhQNE-53" target="7eX2QJKc9km2dqGkhQNE-113">
          <mxGeometry relative="1" as="geometry">
            <Array as="points">
              <mxPoint x="1150" y="381" />
              <mxPoint x="1150" y="381" />
            </Array>
          </mxGeometry>
        </mxCell>
        <mxCell id="7eX2QJKc9km2dqGkhQNE-118" style="edgeStyle=orthogonalEdgeStyle;rounded=0;orthogonalLoop=1;jettySize=auto;html=1;exitX=1;exitY=0.33;exitDx=0;exitDy=0;exitPerimeter=0;entryX=0;entryY=0.79;entryDx=0;entryDy=0;entryPerimeter=0;" edge="1" parent="1" source="7eX2QJKc9km2dqGkhQNE-15" target="7eX2QJKc9km2dqGkhQNE-28">
          <mxGeometry relative="1" as="geometry">
            <Array as="points">
              <mxPoint x="595" y="292" />
              <mxPoint x="595" y="572" />
              <mxPoint x="805" y="572" />
              <mxPoint x="805" y="531" />
            </Array>
          </mxGeometry>
        </mxCell>
        <mxCell id="7eX2QJKc9km2dqGkhQNE-120" style="edgeStyle=orthogonalEdgeStyle;rounded=0;orthogonalLoop=1;jettySize=auto;html=1;exitX=1;exitY=0.5;exitDx=0;exitDy=0;" edge="1" parent="1" source="7e6ycA0EHB4q4oPhDRhc-106">
          <mxGeometry relative="1" as="geometry">
            <mxPoint x="820" y="560" as="targetPoint" />
            <Array as="points">
              <mxPoint x="820" y="560" />
            </Array>
          </mxGeometry>
        </mxCell>
        <mxCell id="7eX2QJKc9km2dqGkhQNE-121" value="" style="edgeStyle=orthogonalEdgeStyle;rounded=0;orthogonalLoop=1;jettySize=auto;html=1;exitX=1;exitY=0.84;exitDx=0;exitDy=0;exitPerimeter=0;endArrow=none;endFill=0;" edge="1" parent="1" source="7eX2QJKc9km2dqGkhQNE-28" target="7eX2QJKc9km2dqGkhQNE-82">
          <mxGeometry relative="1" as="geometry">
            <mxPoint x="880" y="557" as="sourcePoint" />
            <mxPoint x="915" y="556" as="targetPoint" />
            <Array as="points" />
          </mxGeometry>
        </mxCell>
        <mxCell id="7eX2QJKc9km2dqGkhQNE-171" style="edgeStyle=orthogonalEdgeStyle;rounded=0;orthogonalLoop=1;jettySize=auto;html=1;entryX=0.75;entryY=1;entryDx=0;entryDy=0;" edge="1" parent="1" source="7eX2QJKc9km2dqGkhQNE-82" target="Yz_Gi2wW_Vq1L69UiVC6-154">
          <mxGeometry relative="1" as="geometry">
            <Array as="points">
              <mxPoint x="930" y="514" />
            </Array>
          </mxGeometry>
        </mxCell>
        <mxCell id="7eX2QJKc9km2dqGkhQNE-82" value="" style="shape=waypoint;sketch=0;fillStyle=solid;size=6;pointerEvents=1;points=[];fillColor=none;resizable=0;rotatable=0;perimeter=centerPerimeter;snapToPoint=1;" vertex="1" parent="1">
          <mxGeometry x="920" y="547" width="20" height="20" as="geometry" />
        </mxCell>
        <mxCell id="7eX2QJKc9km2dqGkhQNE-122" style="edgeStyle=orthogonalEdgeStyle;rounded=0;orthogonalLoop=1;jettySize=auto;html=1;exitDx=0;exitDy=0;exitPerimeter=0;entryX=0.75;entryY=1;entryDx=0;entryDy=0;" edge="1" parent="1" source="7eX2QJKc9km2dqGkhQNE-123" target="TK8NHG-VaEsM1Jr2HA9Q-4">
          <mxGeometry relative="1" as="geometry">
            <Array as="points">
              <mxPoint x="900" y="531" />
              <mxPoint x="900" y="452" />
            </Array>
          </mxGeometry>
        </mxCell>
        <mxCell id="7eX2QJKc9km2dqGkhQNE-124" value="" style="edgeStyle=orthogonalEdgeStyle;rounded=0;orthogonalLoop=1;jettySize=auto;html=1;exitX=1;exitY=0.79;exitDx=0;exitDy=0;exitPerimeter=0;entryDx=0;entryDy=0;endArrow=none;endFill=0;" edge="1" parent="1" source="7eX2QJKc9km2dqGkhQNE-28" target="7eX2QJKc9km2dqGkhQNE-123">
          <mxGeometry relative="1" as="geometry">
            <mxPoint x="880" y="531" as="sourcePoint" />
            <mxPoint x="910" y="452" as="targetPoint" />
            <Array as="points">
              <mxPoint x="890" y="531" />
            </Array>
          </mxGeometry>
        </mxCell>
        <mxCell id="7eX2QJKc9km2dqGkhQNE-125" style="edgeStyle=orthogonalEdgeStyle;rounded=0;orthogonalLoop=1;jettySize=auto;html=1;entryX=0;entryY=0.75;entryDx=0;entryDy=0;entryPerimeter=0;" edge="1" parent="1" source="7eX2QJKc9km2dqGkhQNE-123" target="7eX2QJKc9km2dqGkhQNE-53">
          <mxGeometry relative="1" as="geometry">
            <Array as="points">
              <mxPoint x="1050" y="531" />
              <mxPoint x="1050" y="511" />
            </Array>
          </mxGeometry>
        </mxCell>
        <mxCell id="7eX2QJKc9km2dqGkhQNE-123" value="" style="shape=waypoint;sketch=0;fillStyle=solid;size=6;pointerEvents=1;points=[];fillColor=none;resizable=0;rotatable=0;perimeter=centerPerimeter;snapToPoint=1;" vertex="1" parent="1">
          <mxGeometry x="890" y="521" width="20" height="20" as="geometry" />
        </mxCell>
        <mxCell id="7eX2QJKc9km2dqGkhQNE-129" style="edgeStyle=orthogonalEdgeStyle;rounded=0;orthogonalLoop=1;jettySize=auto;html=1;exitX=1;exitY=0.75;exitDx=0;exitDy=0;exitPerimeter=0;entryX=0;entryY=0.77;entryDx=0;entryDy=0;entryPerimeter=0;" edge="1" parent="1" source="7eX2QJKc9km2dqGkhQNE-53" target="7e6ycA0EHB4q4oPhDRhc-132">
          <mxGeometry relative="1" as="geometry">
            <Array as="points">
              <mxPoint x="1265" y="511" />
              <mxPoint x="1265" y="665" />
              <mxPoint x="10" y="665" />
              <mxPoint x="10" y="410" />
            </Array>
          </mxGeometry>
        </mxCell>
        <mxCell id="7eX2QJKc9km2dqGkhQNE-131" style="edgeStyle=orthogonalEdgeStyle;rounded=0;orthogonalLoop=1;jettySize=auto;html=1;" edge="1" parent="1" source="7eX2QJKc9km2dqGkhQNE-130">
          <mxGeometry relative="1" as="geometry">
            <mxPoint x="1180" y="449" as="targetPoint" />
          </mxGeometry>
        </mxCell>
        <mxCell id="7eX2QJKc9km2dqGkhQNE-132" value="" style="edgeStyle=orthogonalEdgeStyle;rounded=0;orthogonalLoop=1;jettySize=auto;html=1;entryDx=0;entryDy=0;entryPerimeter=0;endArrow=none;endFill=0;" edge="1" parent="1" source="7eX2QJKc9km2dqGkhQNE-113" target="7eX2QJKc9km2dqGkhQNE-130">
          <mxGeometry relative="1" as="geometry">
            <mxPoint x="1180" y="381" as="sourcePoint" />
            <mxPoint x="1225" y="448" as="targetPoint" />
            <Array as="points" />
          </mxGeometry>
        </mxCell>
        <mxCell id="7eX2QJKc9km2dqGkhQNE-133" style="edgeStyle=orthogonalEdgeStyle;rounded=0;orthogonalLoop=1;jettySize=auto;html=1;entryX=0;entryY=0.65;entryDx=0;entryDy=0;entryPerimeter=0;" edge="1" parent="1" source="7eX2QJKc9km2dqGkhQNE-130" target="7e6ycA0EHB4q4oPhDRhc-132">
          <mxGeometry relative="1" as="geometry">
            <Array as="points">
              <mxPoint x="1180" y="675" />
              <mxPoint y="675" />
              <mxPoint y="396" />
              <mxPoint x="5" y="396" />
            </Array>
          </mxGeometry>
        </mxCell>
        <mxCell id="7eX2QJKc9km2dqGkhQNE-130" value="" style="shape=waypoint;sketch=0;fillStyle=solid;size=6;pointerEvents=1;points=[];fillColor=none;resizable=0;rotatable=0;perimeter=centerPerimeter;snapToPoint=1;" vertex="1" parent="1">
          <mxGeometry x="1170" y="438.55" width="20" height="20" as="geometry" />
        </mxCell>
        <mxCell id="7eX2QJKc9km2dqGkhQNE-135" style="edgeStyle=orthogonalEdgeStyle;rounded=0;orthogonalLoop=1;jettySize=auto;html=1;exitX=1;exitY=0.56;exitDx=0;exitDy=0;exitPerimeter=0;entryX=0;entryY=0.5;entryDx=0;entryDy=0;entryPerimeter=0;" edge="1" parent="1" source="7eX2QJKc9km2dqGkhQNE-53" target="7e6ycA0EHB4q4oPhDRhc-132">
          <mxGeometry relative="1" as="geometry">
            <mxPoint x="10" y="380" as="targetPoint" />
            <Array as="points">
              <mxPoint x="1165" y="412" />
              <mxPoint x="1165" y="685" />
              <mxPoint x="-10" y="685" />
              <mxPoint x="-10" y="380" />
            </Array>
          </mxGeometry>
        </mxCell>
        <mxCell id="7eX2QJKc9km2dqGkhQNE-138" value="" style="edgeStyle=orthogonalEdgeStyle;rounded=0;orthogonalLoop=1;jettySize=auto;html=1;exitX=1;exitY=0.81;exitDx=0;exitDy=0;exitPerimeter=0;entryDx=0;entryDy=0;entryPerimeter=0;endArrow=none;endFill=0;" edge="1" parent="1" source="7eX2QJKc9km2dqGkhQNE-53" target="7eX2QJKc9km2dqGkhQNE-134">
          <mxGeometry relative="1" as="geometry">
            <mxPoint x="1150" y="542" as="sourcePoint" />
            <mxPoint x="1360" y="480" as="targetPoint" />
            <Array as="points" />
          </mxGeometry>
        </mxCell>
        <mxCell id="7eX2QJKc9km2dqGkhQNE-139" style="edgeStyle=orthogonalEdgeStyle;rounded=0;orthogonalLoop=1;jettySize=auto;html=1;entryX=0;entryY=0.37;entryDx=0;entryDy=0;entryPerimeter=0;" edge="1" parent="1" source="7eX2QJKc9km2dqGkhQNE-134" target="7e6ycA0EHB4q4oPhDRhc-132">
          <mxGeometry relative="1" as="geometry">
            <Array as="points">
              <mxPoint x="1195" y="695" />
              <mxPoint x="-20" y="695" />
              <mxPoint x="-20" y="365" />
              <mxPoint x="5" y="365" />
            </Array>
          </mxGeometry>
        </mxCell>
        <mxCell id="7eX2QJKc9km2dqGkhQNE-134" value="" style="shape=waypoint;sketch=0;fillStyle=solid;size=6;pointerEvents=1;points=[];fillColor=none;resizable=0;rotatable=0;perimeter=centerPerimeter;snapToPoint=1;" vertex="1" parent="1">
          <mxGeometry x="1185" y="532" width="20" height="20" as="geometry" />
        </mxCell>
        <mxCell id="7eX2QJKc9km2dqGkhQNE-141" style="edgeStyle=orthogonalEdgeStyle;rounded=0;orthogonalLoop=1;jettySize=auto;html=1;exitX=1;exitY=0.22;exitDx=0;exitDy=0;exitPerimeter=0;entryX=0;entryY=0.5;entryDx=0;entryDy=0;entryPerimeter=0;" edge="1" parent="1" source="7eX2QJKc9km2dqGkhQNE-94" target="7e6ycA0EHB4q4oPhDRhc-157">
          <mxGeometry relative="1" as="geometry">
            <Array as="points">
              <mxPoint x="1500" y="235" />
              <mxPoint x="1500" y="725" />
              <mxPoint x="605" y="725" />
              <mxPoint x="605" y="475" />
              <mxPoint x="640" y="475" />
            </Array>
          </mxGeometry>
        </mxCell>
        <mxCell id="7eX2QJKc9km2dqGkhQNE-155" style="edgeStyle=orthogonalEdgeStyle;rounded=0;orthogonalLoop=1;jettySize=auto;html=1;entryX=0;entryY=0.88;entryDx=0;entryDy=0;entryPerimeter=0;exitX=1;exitY=0.5;exitDx=0;exitDy=0;exitPerimeter=0;" edge="1" parent="1" source="7eX2QJKc9km2dqGkhQNE-144" target="7e6ycA0EHB4q4oPhDRhc-157">
          <mxGeometry relative="1" as="geometry">
            <Array as="points">
              <mxPoint x="1470" y="455" />
              <mxPoint x="1470" y="705" />
              <mxPoint x="625" y="705" />
              <mxPoint x="625" y="518" />
            </Array>
          </mxGeometry>
        </mxCell>
        <mxCell id="7eX2QJKc9km2dqGkhQNE-144" value="" style="rounded=0;whiteSpace=wrap;html=1;points=[[0,0,0,0,0],[0,0.2,0,0,0],[0,0.4,0,0,0],[0,0.6,0,0,0],[0,0.8,0,0,0],[0,1,0,0,0],[0.25,0,0,0,0],[0.25,1,0,0,0],[0.5,0,0,0,0],[0.5,1,0,0,0],[0.75,0,0,0,0],[0.75,1,0,0,0],[1,0,0,0,0],[1,0.25,0,0,0],[1,0.5,0,0,0],[1,0.75,0,0,0],[1,1,0,0,0]];" vertex="1" parent="1">
          <mxGeometry x="1435" y="425" width="20" height="60" as="geometry" />
        </mxCell>
        <mxCell id="7eX2QJKc9km2dqGkhQNE-150" style="edgeStyle=orthogonalEdgeStyle;rounded=0;orthogonalLoop=1;jettySize=auto;html=1;exitX=1;exitY=0.69;exitDx=0;exitDy=0;exitPerimeter=0;entryX=0;entryY=0.6;entryDx=0;entryDy=0;entryPerimeter=0;" edge="1" parent="1" source="7eX2QJKc9km2dqGkhQNE-94" target="7eX2QJKc9km2dqGkhQNE-144">
          <mxGeometry relative="1" as="geometry">
            <Array as="points">
              <mxPoint x="1410" y="480" />
              <mxPoint x="1410" y="461" />
            </Array>
          </mxGeometry>
        </mxCell>
        <mxCell id="7eX2QJKc9km2dqGkhQNE-151" style="edgeStyle=orthogonalEdgeStyle;rounded=0;orthogonalLoop=1;jettySize=auto;html=1;exitX=1;exitY=0.59;exitDx=0;exitDy=0;exitPerimeter=0;entryX=0;entryY=0.4;entryDx=0;entryDy=0;entryPerimeter=0;" edge="1" parent="1" source="7eX2QJKc9km2dqGkhQNE-94" target="7eX2QJKc9km2dqGkhQNE-144">
          <mxGeometry relative="1" as="geometry">
            <Array as="points">
              <mxPoint x="1410" y="428" />
              <mxPoint x="1410" y="449" />
            </Array>
          </mxGeometry>
        </mxCell>
        <mxCell id="7eX2QJKc9km2dqGkhQNE-152" style="edgeStyle=orthogonalEdgeStyle;rounded=0;orthogonalLoop=1;jettySize=auto;html=1;exitX=1;exitY=0.5;exitDx=0;exitDy=0;exitPerimeter=0;entryX=0;entryY=0.2;entryDx=0;entryDy=0;entryPerimeter=0;" edge="1" parent="1" source="7eX2QJKc9km2dqGkhQNE-94" target="7eX2QJKc9km2dqGkhQNE-144">
          <mxGeometry relative="1" as="geometry">
            <Array as="points">
              <mxPoint x="1420" y="381" />
              <mxPoint x="1420" y="437" />
            </Array>
          </mxGeometry>
        </mxCell>
        <mxCell id="7eX2QJKc9km2dqGkhQNE-153" style="edgeStyle=orthogonalEdgeStyle;rounded=0;orthogonalLoop=1;jettySize=auto;html=1;exitX=1;exitY=0.78;exitDx=0;exitDy=0;exitPerimeter=0;entryX=0;entryY=0.8;entryDx=0;entryDy=0;entryPerimeter=0;" edge="1" parent="1" source="7eX2QJKc9km2dqGkhQNE-94" target="7eX2QJKc9km2dqGkhQNE-144">
          <mxGeometry relative="1" as="geometry">
            <Array as="points">
              <mxPoint x="1420" y="527" />
              <mxPoint x="1420" y="473" />
            </Array>
          </mxGeometry>
        </mxCell>
        <mxCell id="7eX2QJKc9km2dqGkhQNE-170" style="edgeStyle=orthogonalEdgeStyle;rounded=0;orthogonalLoop=1;jettySize=auto;html=1;exitX=1;exitY=0.75;exitDx=0;exitDy=0;entryX=0;entryY=0.67;entryDx=0;entryDy=0;entryPerimeter=0;" edge="1" parent="1" source="7e6ycA0EHB4q4oPhDRhc-133" target="7eX2QJKc9km2dqGkhQNE-15">
          <mxGeometry relative="1" as="geometry">
            <Array as="points">
              <mxPoint x="129.92000000000002" y="405" />
              <mxPoint x="129.92000000000002" y="469" />
            </Array>
          </mxGeometry>
        </mxCell>
        <mxCell id="7eX2QJKc9km2dqGkhQNE-178" value="" style="group" vertex="1" connectable="0" parent="1">
          <mxGeometry x="439.92" y="800" width="240" height="420" as="geometry" />
        </mxCell>
        <mxCell id="7eX2QJKc9km2dqGkhQNE-164" value="HarzardDetection" style="text;html=1;strokeColor=none;fillColor=none;align=center;verticalAlign=middle;whiteSpace=wrap;rounded=0;fontSize=20;" vertex="1" parent="7eX2QJKc9km2dqGkhQNE-178">
          <mxGeometry width="240" height="20" as="geometry" />
        </mxCell>
        <mxCell id="7eX2QJKc9km2dqGkhQNE-165" value="" style="group" vertex="1" connectable="0" parent="7eX2QJKc9km2dqGkhQNE-178">
          <mxGeometry y="20" width="240" height="400" as="geometry" />
        </mxCell>
        <mxCell id="7eX2QJKc9km2dqGkhQNE-166" value="" style="rounded=0;whiteSpace=wrap;html=1;movable=1;resizable=1;rotatable=1;deletable=1;editable=1;locked=0;connectable=1;" vertex="1" parent="7eX2QJKc9km2dqGkhQNE-165">
          <mxGeometry width="240" height="400.00000000000006" as="geometry" />
        </mxCell>
        <mxCell id="7eX2QJKc9km2dqGkhQNE-167" value="rst&lt;br&gt;id_opcode&lt;br&gt;id_rR1&lt;br&gt;id_rR2&lt;br&gt;id_rf_rf1&lt;br&gt;id_rf_rf2&lt;br&gt;ex_opcode&lt;br&gt;ex_wR&lt;br&gt;ex_rf_we&lt;br&gt;ex_rf_wsel&lt;br&gt;ex_c&lt;br&gt;ex_ext&lt;br&gt;ex_pc4&lt;br&gt;mem_wR&lt;br&gt;mem_rf_we&lt;br&gt;mem_rf_wsel&lt;br&gt;mem_c&lt;br&gt;mem_rdo&lt;br&gt;mem_ext&lt;br&gt;mem_pc4&lt;br&gt;wb_wR&lt;br&gt;wb_rf_we&lt;br&gt;wb_rf_wsel&lt;br&gt;wb_c&lt;br&gt;wb_rdo&lt;br&gt;wb_ext&lt;br&gt;wb_pc4" style="text;html=1;strokeColor=none;fillColor=none;align=left;verticalAlign=middle;whiteSpace=wrap;rounded=0;movable=1;resizable=1;rotatable=1;deletable=1;editable=1;locked=0;connectable=1;spacingLeft=4;spacingBottom=0;spacing=2;horizontal=1;points=[[0,0,0,0,0],[0,0.03,0,0,0],[0,0.06,0,0,0],[0,0.1,0,0,0],[0,0.13,0,0,0],[0,0.17,0,0,0],[0,0.21,0,0,0],[0,0.25,0,0,0],[0,0.29,0,0,0],[0,0.32,0,0,0],[0,0.36,0,0,0],[0,0.39,0,0,0],[0,0.43,0,0,0],[0,0.46,0,0,0],[0,0.5,0,0,0],[0,0.54,0,0,0],[0,0.57,0,0,0],[0,0.61,0,0,0],[0,0.64,0,0,0],[0,0.68,0,0,0],[0,0.71,0,0,0],[0,0.75,0,0,0],[0,0.79,0,0,0],[0,0.82,0,0,0],[0,0.86,0,0,0],[0,0.89,0,0,0],[0,0.93,0,0,0],[0,0.96,0,0,0],[0,1,0,0,0],[0.25,0,0,0,0],[0.25,1,0,0,0],[0.5,0,0,0,0],[0.5,1,0,0,0],[0.75,0,0,0,0],[0.75,1,0,0,0],[1,0,0,0,0],[1,0.25,0,0,0],[1,0.5,0,0,0],[1,0.75,0,0,0],[1,1,0,0,0]];" vertex="1" parent="7eX2QJKc9km2dqGkhQNE-165">
          <mxGeometry width="96" height="400" as="geometry" />
        </mxCell>
        <mxCell id="7eX2QJKc9km2dqGkhQNE-168" style="edgeStyle=orthogonalEdgeStyle;rounded=0;orthogonalLoop=1;jettySize=auto;html=1;exitX=1;exitY=0.5;exitDx=0;exitDy=0;" edge="1" parent="7eX2QJKc9km2dqGkhQNE-165" source="7eX2QJKc9km2dqGkhQNE-169">
          <mxGeometry relative="1" as="geometry">
            <mxPoint x="240.60000000000014" y="200" as="targetPoint" />
          </mxGeometry>
        </mxCell>
        <mxCell id="7eX2QJKc9km2dqGkhQNE-169" value="&lt;p style=&quot;border-color: var(--border-color); line-height: 230%;&quot;&gt;pc_update&lt;br style=&quot;border-color: var(--border-color);&quot;&gt;&lt;/p&gt;&lt;p style=&quot;border-color: var(--border-color); line-height: 230%;&quot;&gt;rs1_id_data_hazard&lt;/p&gt;&lt;p style=&quot;border-color: var(--border-color); line-height: 230%;&quot;&gt;rs2_id_data_hazard&lt;/p&gt;&lt;p style=&quot;border-color: var(--border-color); line-height: 230%;&quot;&gt;forward_rD1&lt;/p&gt;&lt;p style=&quot;border-color: var(--border-color); line-height: 230%;&quot;&gt;forward_rD2&lt;/p&gt;&lt;p style=&quot;border-color: var(--border-color); line-height: 230%;&quot;&gt;if_id_pipeline_stop&lt;/p&gt;&lt;p style=&quot;border-color: var(--border-color); line-height: 230%;&quot;&gt;id_ex_pipeline_stop&lt;/p&gt;&lt;p style=&quot;border-color: var(--border-color); line-height: 230%;&quot;&gt;ex_mem_pipeline_stop&lt;/p&gt;&lt;p style=&quot;border-color: var(--border-color); line-height: 230%;&quot;&gt;mem_wb_pipeline_stop&lt;/p&gt;" style="text;html=1;strokeColor=none;fillColor=none;align=right;verticalAlign=middle;whiteSpace=wrap;rounded=0;movable=1;resizable=1;rotatable=1;deletable=1;editable=1;locked=0;connectable=1;spacingRight=4;points=[[0,0,0,0,0],[0,0.25,0,0,0],[0,0.5,0,0,0],[0,0.75,0,0,0],[0,1,0,0,0],[0.25,0,0,0,0],[0.25,1,0,0,0],[0.5,0,0,0,0],[0.5,1,0,0,0],[0.75,0,0,0,0],[0.75,1,0,0,0],[1,0,0,0,0],[1,0.1,0,0,0],[1,0.2,0,0,0],[1,0.3,0,0,0],[1,0.4,0,0,0],[1,0.5,0,0,0],[1,0.6,0,0,0],[1,0.7,0,0,0],[1,0.8,0,0,0],[1,0.9,0,0,0],[1,1,0,0,0]];" vertex="1" parent="7eX2QJKc9km2dqGkhQNE-165">
          <mxGeometry x="144" width="96" height="400" as="geometry" />
        </mxCell>
        <mxCell id="7eX2QJKc9km2dqGkhQNE-179" style="edgeStyle=orthogonalEdgeStyle;rounded=0;orthogonalLoop=1;jettySize=auto;html=1;exitX=1;exitY=0.1;exitDx=0;exitDy=0;exitPerimeter=0;entryX=0;entryY=0.9;entryDx=0;entryDy=0;entryPerimeter=0;" edge="1" parent="1" source="7eX2QJKc9km2dqGkhQNE-169" target="7e6ycA0EHB4q4oPhDRhc-132">
          <mxGeometry relative="1" as="geometry">
            <Array as="points">
              <mxPoint x="700" y="860" />
              <mxPoint x="700" y="780" />
              <mxPoint x="-30" y="780" />
              <mxPoint x="-30" y="424" />
            </Array>
          </mxGeometry>
        </mxCell>
        <mxCell id="7eX2QJKc9km2dqGkhQNE-181" style="edgeStyle=orthogonalEdgeStyle;rounded=0;orthogonalLoop=1;jettySize=auto;html=1;exitX=1;exitY=0.2;exitDx=0;exitDy=0;exitPerimeter=0;entryX=1;entryY=0.5;entryDx=0;entryDy=0;" edge="1" parent="1" source="7eX2QJKc9km2dqGkhQNE-169" target="7eX2QJKc9km2dqGkhQNE-2">
          <mxGeometry relative="1" as="geometry" />
        </mxCell>
        <mxCell id="7eX2QJKc9km2dqGkhQNE-182" style="edgeStyle=orthogonalEdgeStyle;rounded=0;orthogonalLoop=1;jettySize=auto;html=1;exitX=1;exitY=0.3;exitDx=0;exitDy=0;exitPerimeter=0;entryX=1;entryY=0.5;entryDx=0;entryDy=0;" edge="1" parent="1" source="7eX2QJKc9km2dqGkhQNE-169" target="7eX2QJKc9km2dqGkhQNE-3">
          <mxGeometry relative="1" as="geometry" />
        </mxCell>
        <mxCell id="7eX2QJKc9km2dqGkhQNE-183" style="edgeStyle=orthogonalEdgeStyle;rounded=0;orthogonalLoop=1;jettySize=auto;html=1;exitX=1;exitY=0.4;exitDx=0;exitDy=0;exitPerimeter=0;entryX=0.75;entryY=1;entryDx=0;entryDy=0;" edge="1" parent="1" source="7eX2QJKc9km2dqGkhQNE-169" target="7eX2QJKc9km2dqGkhQNE-2">
          <mxGeometry relative="1" as="geometry">
            <Array as="points">
              <mxPoint x="765" y="980" />
              <mxPoint x="765" y="480" />
            </Array>
          </mxGeometry>
        </mxCell>
        <mxCell id="7eX2QJKc9km2dqGkhQNE-184" style="edgeStyle=orthogonalEdgeStyle;rounded=0;orthogonalLoop=1;jettySize=auto;html=1;entryX=0.75;entryY=1;entryDx=0;entryDy=0;" edge="1" parent="1" source="7eX2QJKc9km2dqGkhQNE-169" target="7eX2QJKc9km2dqGkhQNE-3">
          <mxGeometry relative="1" as="geometry">
            <Array as="points">
              <mxPoint x="720" y="1020" />
              <mxPoint x="720" y="515" />
            </Array>
          </mxGeometry>
        </mxCell>
        <mxCell id="7eX2QJKc9km2dqGkhQNE-186" style="edgeStyle=orthogonalEdgeStyle;rounded=0;orthogonalLoop=1;jettySize=auto;html=1;exitX=1;exitY=0.75;exitDx=0;exitDy=0;entryX=0.25;entryY=1;entryDx=0;entryDy=0;" edge="1" parent="1" source="7e6ycA0EHB4q4oPhDRhc-158" target="7eX2QJKc9km2dqGkhQNE-3">
          <mxGeometry relative="1" as="geometry">
            <Array as="points">
              <mxPoint x="720" y="504" />
              <mxPoint x="720" y="495" />
            </Array>
          </mxGeometry>
        </mxCell>
        <mxCell id="7eX2QJKc9km2dqGkhQNE-188" value="" style="endArrow=none;dashed=1;html=1;dashPattern=1 3;strokeWidth=2;rounded=0;" edge="1" parent="1">
          <mxGeometry width="50" height="50" relative="1" as="geometry">
            <mxPoint x="414.92" y="1205" as="sourcePoint" />
            <mxPoint x="414.92" y="840" as="targetPoint" />
          </mxGeometry>
        </mxCell>
        <mxCell id="7eX2QJKc9km2dqGkhQNE-189" value="" style="endArrow=classic;html=1;rounded=0;entryX=0;entryY=0.03;entryDx=0;entryDy=0;entryPerimeter=0;" edge="1" parent="1" target="7eX2QJKc9km2dqGkhQNE-167">
          <mxGeometry width="50" height="50" relative="1" as="geometry">
            <mxPoint x="389.92" y="832" as="sourcePoint" />
            <mxPoint x="399.92" y="840" as="targetPoint" />
          </mxGeometry>
        </mxCell>
        <mxCell id="7eX2QJKc9km2dqGkhQNE-190" style="edgeStyle=orthogonalEdgeStyle;rounded=0;orthogonalLoop=1;jettySize=auto;html=1;exitX=1;exitY=0.6;exitDx=0;exitDy=0;exitPerimeter=0;entryX=0.75;entryY=1;entryDx=0;entryDy=0;entryPerimeter=0;" edge="1" parent="1" source="7eX2QJKc9km2dqGkhQNE-169" target="7eX2QJKc9km2dqGkhQNE-15">
          <mxGeometry relative="1" as="geometry">
            <mxPoint x="1065" y="1060.4285714285716" as="targetPoint" />
            <Array as="points">
              <mxPoint x="810" y="1060" />
              <mxPoint x="810" y="755" />
              <mxPoint x="435" y="755" />
            </Array>
          </mxGeometry>
        </mxCell>
        <mxCell id="7eX2QJKc9km2dqGkhQNE-193" style="edgeStyle=orthogonalEdgeStyle;rounded=0;orthogonalLoop=1;jettySize=auto;html=1;exitX=1;exitY=0.7;exitDx=0;exitDy=0;exitPerimeter=0;entryX=0.75;entryY=1;entryDx=0;entryDy=0;entryPerimeter=0;" edge="1" parent="1" source="7eX2QJKc9km2dqGkhQNE-169" target="7eX2QJKc9km2dqGkhQNE-28">
          <mxGeometry relative="1" as="geometry" />
        </mxCell>
        <mxCell id="7eX2QJKc9km2dqGkhQNE-194" style="edgeStyle=orthogonalEdgeStyle;rounded=0;orthogonalLoop=1;jettySize=auto;html=1;exitX=1;exitY=0.8;exitDx=0;exitDy=0;exitPerimeter=0;entryX=0.75;entryY=1;entryDx=0;entryDy=0;entryPerimeter=0;" edge="1" parent="1" source="7eX2QJKc9km2dqGkhQNE-169" target="7eX2QJKc9km2dqGkhQNE-53">
          <mxGeometry relative="1" as="geometry" />
        </mxCell>
        <mxCell id="7eX2QJKc9km2dqGkhQNE-195" style="edgeStyle=orthogonalEdgeStyle;rounded=0;orthogonalLoop=1;jettySize=auto;html=1;exitX=1;exitY=0.9;exitDx=0;exitDy=0;exitPerimeter=0;entryX=0.75;entryY=1;entryDx=0;entryDy=0;entryPerimeter=0;" edge="1" parent="1" source="7eX2QJKc9km2dqGkhQNE-169" target="7eX2QJKc9km2dqGkhQNE-94">
          <mxGeometry relative="1" as="geometry" />
        </mxCell>
        <mxCell id="7eX2QJKc9km2dqGkhQNE-196" style="edgeStyle=orthogonalEdgeStyle;rounded=0;orthogonalLoop=1;jettySize=auto;html=1;entryX=0.5;entryY=1;entryDx=0;entryDy=0;exitX=1;exitY=0.5;exitDx=0;exitDy=0;" edge="1" parent="1" source="7eX2QJKc9km2dqGkhQNE-197">
          <mxGeometry relative="1" as="geometry">
            <mxPoint x="419.92" y="641.12" as="targetPoint" />
          </mxGeometry>
        </mxCell>
        <mxCell id="7eX2QJKc9km2dqGkhQNE-197" value="clk" style="text;html=1;strokeColor=none;fillColor=none;align=center;verticalAlign=middle;whiteSpace=wrap;rounded=0;" vertex="1" parent="1">
          <mxGeometry x="379.92" y="649.12" width="30" height="20" as="geometry" />
        </mxCell>
        <mxCell id="7eX2QJKc9km2dqGkhQNE-198" style="edgeStyle=orthogonalEdgeStyle;rounded=0;orthogonalLoop=1;jettySize=auto;html=1;entryX=0.5;entryY=1;entryDx=0;entryDy=0;exitX=1;exitY=0.5;exitDx=0;exitDy=0;" edge="1" parent="1" source="7eX2QJKc9km2dqGkhQNE-199">
          <mxGeometry relative="1" as="geometry">
            <mxPoint x="189.92000000000002" y="420" as="targetPoint" />
          </mxGeometry>
        </mxCell>
        <mxCell id="7eX2QJKc9km2dqGkhQNE-199" value="clk" style="text;html=1;strokeColor=none;fillColor=none;align=center;verticalAlign=middle;whiteSpace=wrap;rounded=0;" vertex="1" parent="1">
          <mxGeometry x="149.92000000000002" y="428" width="30" height="20" as="geometry" />
        </mxCell>
        <mxCell id="7eX2QJKc9km2dqGkhQNE-202" style="edgeStyle=orthogonalEdgeStyle;rounded=0;orthogonalLoop=1;jettySize=auto;html=1;entryX=0.5;entryY=1;entryDx=0;entryDy=0;exitX=1;exitY=0.5;exitDx=0;exitDy=0;" edge="1" parent="1" source="7eX2QJKc9km2dqGkhQNE-203">
          <mxGeometry relative="1" as="geometry">
            <mxPoint x="850" y="640.75" as="targetPoint" />
          </mxGeometry>
        </mxCell>
        <mxCell id="7eX2QJKc9km2dqGkhQNE-203" value="clk" style="text;html=1;strokeColor=none;fillColor=none;align=center;verticalAlign=middle;whiteSpace=wrap;rounded=0;" vertex="1" parent="1">
          <mxGeometry x="810" y="648.75" width="30" height="20" as="geometry" />
        </mxCell>
        <mxCell id="7eX2QJKc9km2dqGkhQNE-204" style="edgeStyle=orthogonalEdgeStyle;rounded=0;orthogonalLoop=1;jettySize=auto;html=1;entryX=0.5;entryY=1;entryDx=0;entryDy=0;exitX=1;exitY=0.5;exitDx=0;exitDy=0;" edge="1" parent="1" source="7eX2QJKc9km2dqGkhQNE-205">
          <mxGeometry relative="1" as="geometry">
            <mxPoint x="1120" y="640.38" as="targetPoint" />
          </mxGeometry>
        </mxCell>
        <mxCell id="7eX2QJKc9km2dqGkhQNE-205" value="clk" style="text;html=1;strokeColor=none;fillColor=none;align=center;verticalAlign=middle;whiteSpace=wrap;rounded=0;" vertex="1" parent="1">
          <mxGeometry x="1080" y="648.38" width="30" height="20" as="geometry" />
        </mxCell>
        <mxCell id="7eX2QJKc9km2dqGkhQNE-206" style="edgeStyle=orthogonalEdgeStyle;rounded=0;orthogonalLoop=1;jettySize=auto;html=1;entryX=0.5;entryY=1;entryDx=0;entryDy=0;exitX=1;exitY=0.5;exitDx=0;exitDy=0;" edge="1" parent="1" source="7eX2QJKc9km2dqGkhQNE-207">
          <mxGeometry relative="1" as="geometry">
            <mxPoint x="1370" y="641.12" as="targetPoint" />
          </mxGeometry>
        </mxCell>
        <mxCell id="7eX2QJKc9km2dqGkhQNE-207" value="clk" style="text;html=1;strokeColor=none;fillColor=none;align=center;verticalAlign=middle;whiteSpace=wrap;rounded=0;" vertex="1" parent="1">
          <mxGeometry x="1330" y="649.12" width="30" height="20" as="geometry" />
        </mxCell>
        <mxCell id="7eX2QJKc9km2dqGkhQNE-208" style="edgeStyle=orthogonalEdgeStyle;rounded=0;orthogonalLoop=1;jettySize=auto;html=1;entryX=0.5;entryY=1;entryDx=0;entryDy=0;exitX=1;exitY=0.5;exitDx=0;exitDy=0;" edge="1" parent="1" source="7eX2QJKc9km2dqGkhQNE-209">
          <mxGeometry relative="1" as="geometry">
            <mxPoint x="1265" y="475" as="targetPoint" />
          </mxGeometry>
        </mxCell>
        <mxCell id="7eX2QJKc9km2dqGkhQNE-209" value="clk" style="text;html=1;strokeColor=none;fillColor=none;align=center;verticalAlign=middle;whiteSpace=wrap;rounded=0;" vertex="1" parent="1">
          <mxGeometry x="1225" y="483" width="30" height="20" as="geometry" />
        </mxCell>
        <mxCell id="7eX2QJKc9km2dqGkhQNE-210" value="" style="endArrow=none;html=1;rounded=0;exitX=1;exitY=1;exitDx=0;exitDy=0;entryX=0;entryY=1;entryDx=0;entryDy=0;movable=1;resizable=1;rotatable=1;deletable=1;editable=1;locked=0;connectable=1;" edge="1" parent="1">
          <mxGeometry width="50" height="50" relative="1" as="geometry">
            <mxPoint x="551.92" y="1220.37" as="sourcePoint" />
            <mxPoint x="567.92" y="1220.37" as="targetPoint" />
            <Array as="points">
              <mxPoint x="559.92" y="1209.9956684491979" />
            </Array>
          </mxGeometry>
        </mxCell>
        <mxCell id="7eX2QJKc9km2dqGkhQNE-211" style="edgeStyle=orthogonalEdgeStyle;rounded=0;orthogonalLoop=1;jettySize=auto;html=1;entryX=0.5;entryY=1;entryDx=0;entryDy=0;exitX=1;exitY=0.5;exitDx=0;exitDy=0;" edge="1" parent="1" source="7eX2QJKc9km2dqGkhQNE-212">
          <mxGeometry relative="1" as="geometry">
            <mxPoint x="559.92" y="1220.74" as="targetPoint" />
          </mxGeometry>
        </mxCell>
        <mxCell id="7eX2QJKc9km2dqGkhQNE-212" value="clk" style="text;html=1;strokeColor=none;fillColor=none;align=center;verticalAlign=middle;whiteSpace=wrap;rounded=0;" vertex="1" parent="1">
          <mxGeometry x="519.92" y="1228.74" width="30" height="20" as="geometry" />
        </mxCell>
        <mxCell id="7eX2QJKc9km2dqGkhQNE-213" value="" style="group" vertex="1" connectable="0" parent="1">
          <mxGeometry x="29.92" y="304.82" width="100" height="130" as="geometry" />
        </mxCell>
        <mxCell id="c12Zz6_BwPpkW7wppEjt-3" value="32" style="text;html=1;strokeColor=none;fillColor=none;align=center;verticalAlign=middle;whiteSpace=wrap;rounded=0;" parent="7eX2QJKc9km2dqGkhQNE-213" vertex="1">
          <mxGeometry x="80" y="60" width="20" height="10" as="geometry" />
        </mxCell>
        <mxCell id="7e6ycA0EHB4q4oPhDRhc-129" value="NPC" style="text;html=1;strokeColor=none;fillColor=none;align=center;verticalAlign=middle;whiteSpace=wrap;rounded=0;fontSize=20;" parent="7eX2QJKc9km2dqGkhQNE-213" vertex="1">
          <mxGeometry width="80" height="20" as="geometry" />
        </mxCell>
        <mxCell id="7e6ycA0EHB4q4oPhDRhc-130" value="" style="group" parent="7eX2QJKc9km2dqGkhQNE-213" vertex="1" connectable="0">
          <mxGeometry y="20" width="80" height="110" as="geometry" />
        </mxCell>
        <mxCell id="7e6ycA0EHB4q4oPhDRhc-131" value="" style="rounded=0;whiteSpace=wrap;html=1;movable=1;resizable=1;rotatable=1;deletable=1;editable=1;locked=0;connectable=1;" parent="7e6ycA0EHB4q4oPhDRhc-130" vertex="1">
          <mxGeometry width="80" height="110.00000000000001" as="geometry" />
        </mxCell>
        <mxCell id="7e6ycA0EHB4q4oPhDRhc-132" value="&lt;p style=&quot;line-height: 20%;&quot;&gt;pc&lt;/p&gt;&lt;p style=&quot;line-height: 20%;&quot;&gt;op&lt;/p&gt;&lt;p style=&quot;line-height: 20%;&quot;&gt;offset&lt;/p&gt;&lt;p style=&quot;line-height: 20%;&quot;&gt;br&lt;/p&gt;&lt;p style=&quot;line-height: 20%;&quot;&gt;next&lt;/p&gt;&lt;p style=&quot;line-height: 20%;&quot;&gt;base_pc&lt;/p&gt;&lt;p style=&quot;line-height: 20%;&quot;&gt;pc_update&lt;/p&gt;" style="text;html=1;strokeColor=none;fillColor=none;align=left;verticalAlign=middle;whiteSpace=wrap;rounded=0;movable=1;resizable=1;rotatable=1;deletable=1;editable=1;locked=0;connectable=1;spacingLeft=4;spacingBottom=0;spacing=2;horizontal=1;points=[[0,0,0,0,0],[0,0.15,0,0,0],[0,0.25,0,0,0],[0,0.37,0,0,0],[0,0.5,0,0,0],[0,0.65,0,0,0],[0,0.77,0,0,0],[0,0.9,0,0,0],[0,1,0,0,0],[0.25,0,0,0,0],[0.25,1,0,0,0],[0.5,0,0,0,0],[0.5,1,0,0,0],[0.75,0,0,0,0],[0.75,1,0,0,0],[1,0,0,0,0],[1,0.25,0,0,0],[1,0.5,0,0,0],[1,0.75,0,0,0],[1,1,0,0,0]];" parent="7e6ycA0EHB4q4oPhDRhc-130" vertex="1">
          <mxGeometry width="30" height="110.00000000000001" as="geometry" />
        </mxCell>
        <mxCell id="7e6ycA0EHB4q4oPhDRhc-133" value="&lt;p style=&quot;line-height: 70%;&quot;&gt;&lt;br&gt;&lt;/p&gt;&lt;p style=&quot;line-height: 70%;&quot;&gt;npc&lt;/p&gt;&lt;p style=&quot;line-height: 70%;&quot;&gt;pc4&lt;/p&gt;" style="text;html=1;strokeColor=none;fillColor=none;align=right;verticalAlign=middle;whiteSpace=wrap;rounded=0;movable=1;resizable=1;rotatable=1;deletable=1;editable=1;locked=0;connectable=1;spacingRight=4;" parent="7e6ycA0EHB4q4oPhDRhc-130" vertex="1">
          <mxGeometry x="48" width="32" height="110.00000000000001" as="geometry" />
        </mxCell>
        <mxCell id="7eX2QJKc9km2dqGkhQNE-217" value="HazardDetection" style="text;html=1;strokeColor=none;fillColor=none;align=center;verticalAlign=middle;whiteSpace=wrap;rounded=0;" vertex="1" parent="1">
          <mxGeometry x="920" y="155" width="95" height="30" as="geometry" />
        </mxCell>
        <mxCell id="7eX2QJKc9km2dqGkhQNE-218" value="32" style="text;html=1;strokeColor=none;fillColor=none;align=center;verticalAlign=middle;whiteSpace=wrap;rounded=0;" vertex="1" parent="1">
          <mxGeometry x="710" y="432.5" width="20" height="15" as="geometry" />
        </mxCell>
        <mxCell id="7eX2QJKc9km2dqGkhQNE-219" value="32" style="text;html=1;strokeColor=none;fillColor=none;align=center;verticalAlign=middle;whiteSpace=wrap;rounded=0;" vertex="1" parent="1">
          <mxGeometry x="710" y="478.57" width="20" height="15" as="geometry" />
        </mxCell>
        <mxCell id="7eX2QJKc9km2dqGkhQNE-222" value="" style="endArrow=classic;html=1;rounded=0;entryX=0;entryY=0.25;entryDx=0;entryDy=0;" edge="1" parent="1" target="7e6ycA0EHB4q4oPhDRhc-149">
          <mxGeometry width="50" height="50" relative="1" as="geometry">
            <mxPoint x="130" y="360" as="sourcePoint" />
            <mxPoint x="205" y="320" as="targetPoint" />
          </mxGeometry>
        </mxCell>
        <mxCell id="7eX2QJKc9km2dqGkhQNE-230" style="edgeStyle=orthogonalEdgeStyle;rounded=0;orthogonalLoop=1;jettySize=auto;html=1;exitX=1;exitY=0.62;exitDx=0;exitDy=0;exitPerimeter=0;entryX=0;entryY=0.22;entryDx=0;entryDy=0;entryPerimeter=0;" edge="1" parent="1" source="7eX2QJKc9km2dqGkhQNE-53" target="7eX2QJKc9km2dqGkhQNE-94">
          <mxGeometry relative="1" as="geometry">
            <Array as="points">
              <mxPoint x="1170" y="443" />
              <mxPoint x="1170" y="235" />
            </Array>
          </mxGeometry>
        </mxCell>
        <mxCell id="7eX2QJKc9km2dqGkhQNE-231" style="edgeStyle=orthogonalEdgeStyle;rounded=0;orthogonalLoop=1;jettySize=auto;html=1;exitX=1;exitY=0.41;exitDx=0;exitDy=0;exitPerimeter=0;entryX=0.5;entryY=0;entryDx=0;entryDy=0;entryPerimeter=0;" edge="1" parent="1" source="7eX2QJKc9km2dqGkhQNE-94" target="7eX2QJKc9km2dqGkhQNE-144">
          <mxGeometry relative="1" as="geometry" />
        </mxCell>
        <mxCell id="7eX2QJKc9km2dqGkhQNE-232" style="edgeStyle=orthogonalEdgeStyle;rounded=0;orthogonalLoop=1;jettySize=auto;html=1;exitX=1;exitY=0.31;exitDx=0;exitDy=0;exitPerimeter=0;entryX=0;entryY=0.7;entryDx=0;entryDy=0;entryPerimeter=0;" edge="1" parent="1" source="7eX2QJKc9km2dqGkhQNE-94" target="7e6ycA0EHB4q4oPhDRhc-157">
          <mxGeometry relative="1" as="geometry">
            <Array as="points">
              <mxPoint x="1485" y="282" />
              <mxPoint x="1485" y="715" />
              <mxPoint x="615" y="715" />
              <mxPoint x="615" y="498" />
            </Array>
          </mxGeometry>
        </mxCell>
      </root>
    </mxGraphModel>
  </diagram>
</mxfile>
